<mxfile host="app.diagrams.net" modified="2023-05-30T07:55:02.508Z" agent="Mozilla/5.0 (Windows NT 10.0; Win64; x64; rv:109.0) Gecko/20100101 Firefox/113.0" etag="qyl0I_gUhQYB9dXJ-MLY" version="21.3.3" type="github">
  <diagram id="R2lEEEUBdFMjLlhIrx00" name="Page-1">
    <mxGraphModel dx="1434" dy="774" grid="1" gridSize="10" guides="1" tooltips="1" connect="1" arrows="1" fold="1" page="1" pageScale="1" pageWidth="1100" pageHeight="850" math="0" shadow="0" extFonts="Permanent Marker^https://fonts.googleapis.com/css?family=Permanent+Marker">
      <root>
        <mxCell id="0" />
        <mxCell id="1" parent="0" />
        <mxCell id="7NxkdCGCCHtkmiXkoG6E-15" value="&lt;ul&gt;&lt;li align=&quot;left&quot; style=&quot;font-size: 11px;&quot;&gt;&lt;b&gt;&lt;i&gt;Matricola&lt;/i&gt;&lt;/b&gt;&lt;/li&gt;&lt;li align=&quot;left&quot; style=&quot;font-size: 11px;&quot;&gt;CodiceFiscale REF Anagrafica &lt;br&gt;&lt;/li&gt;&lt;li align=&quot;left&quot; style=&quot;font-size: 11px;&quot;&gt;AnnoIscrizione&lt;/li&gt;&lt;li align=&quot;left&quot; style=&quot;font-size: 11px;&quot;&gt;Corso REF Corso&lt;/li&gt;&lt;li align=&quot;left&quot; style=&quot;font-size: 11px;&quot;&gt;MotivoArchivio&lt;br&gt;&lt;/li&gt;&lt;/ul&gt;" style="text;html=1;strokeColor=none;fillColor=none;align=left;verticalAlign=middle;whiteSpace=wrap;rounded=0;" vertex="1" parent="1">
          <mxGeometry x="361" y="60" width="189" height="110" as="geometry" />
        </mxCell>
        <mxCell id="7NxkdCGCCHtkmiXkoG6E-3" value="&lt;ul&gt;&lt;li align=&quot;left&quot; style=&quot;font-size: 11px;&quot;&gt;&lt;b&gt;&lt;i&gt;IdDocente&lt;/i&gt;&lt;/b&gt;&lt;/li&gt;&lt;li align=&quot;left&quot; style=&quot;font-size: 11px;&quot;&gt;CodiceFiscale REF Anagrafica&lt;/li&gt;&lt;li align=&quot;left&quot; style=&quot;font-size: 11px;&quot;&gt;Qualifica&lt;/li&gt;&lt;li align=&quot;left&quot; style=&quot;font-size: 11px;&quot;&gt;SitoWeb&lt;br&gt;&lt;/li&gt;&lt;/ul&gt;" style="text;html=1;strokeColor=none;fillColor=none;align=left;verticalAlign=middle;whiteSpace=wrap;rounded=0;" vertex="1" parent="1">
          <mxGeometry x="345" y="317.5" width="239" height="110" as="geometry" />
        </mxCell>
        <mxCell id="C-vyLk0tnHw3VtMMgP7b-2" value="Docenti" style="shape=table;startSize=30;container=1;collapsible=1;childLayout=tableLayout;fixedRows=1;rowLines=0;fontStyle=1;align=center;resizeLast=1;fillColor=#fa6800;strokeColor=#C73500;fontColor=#FFFFFF;swimlaneFillColor=none;" parent="1" vertex="1" collapsed="1">
          <mxGeometry x="280" y="366" width="90" height="30" as="geometry">
            <mxRectangle x="50" y="300" width="250" height="130" as="alternateBounds" />
          </mxGeometry>
        </mxCell>
        <mxCell id="C-vyLk0tnHw3VtMMgP7b-3" value="" style="shape=partialRectangle;collapsible=0;dropTarget=0;pointerEvents=0;fillColor=none;points=[[0,0.5],[1,0.5]];portConstraint=eastwest;top=0;left=0;right=0;bottom=1;" parent="C-vyLk0tnHw3VtMMgP7b-2" vertex="1">
          <mxGeometry y="30" width="250" height="30" as="geometry" />
        </mxCell>
        <mxCell id="C-vyLk0tnHw3VtMMgP7b-4" value="PK" style="shape=partialRectangle;overflow=hidden;connectable=0;fillColor=none;top=0;left=0;bottom=0;right=0;fontStyle=1;" parent="C-vyLk0tnHw3VtMMgP7b-3" vertex="1">
          <mxGeometry width="30" height="30" as="geometry">
            <mxRectangle width="30" height="30" as="alternateBounds" />
          </mxGeometry>
        </mxCell>
        <mxCell id="C-vyLk0tnHw3VtMMgP7b-5" value="order_id int NOT NULL " style="shape=partialRectangle;overflow=hidden;connectable=0;fillColor=none;top=0;left=0;bottom=0;right=0;align=left;spacingLeft=6;fontStyle=5;" parent="C-vyLk0tnHw3VtMMgP7b-3" vertex="1">
          <mxGeometry x="30" width="220" height="30" as="geometry">
            <mxRectangle width="220" height="30" as="alternateBounds" />
          </mxGeometry>
        </mxCell>
        <mxCell id="C-vyLk0tnHw3VtMMgP7b-6" value="" style="shape=partialRectangle;collapsible=0;dropTarget=0;pointerEvents=0;fillColor=none;points=[[0,0.5],[1,0.5]];portConstraint=eastwest;top=0;left=0;right=0;bottom=0;" parent="C-vyLk0tnHw3VtMMgP7b-2" vertex="1">
          <mxGeometry y="60" width="250" height="30" as="geometry" />
        </mxCell>
        <mxCell id="C-vyLk0tnHw3VtMMgP7b-7" value="FK1" style="shape=partialRectangle;overflow=hidden;connectable=0;fillColor=none;top=0;left=0;bottom=0;right=0;" parent="C-vyLk0tnHw3VtMMgP7b-6" vertex="1">
          <mxGeometry width="30" height="30" as="geometry">
            <mxRectangle width="30" height="30" as="alternateBounds" />
          </mxGeometry>
        </mxCell>
        <mxCell id="C-vyLk0tnHw3VtMMgP7b-8" value="customer_id int NOT NULL" style="shape=partialRectangle;overflow=hidden;connectable=0;fillColor=none;top=0;left=0;bottom=0;right=0;align=left;spacingLeft=6;" parent="C-vyLk0tnHw3VtMMgP7b-6" vertex="1">
          <mxGeometry x="30" width="220" height="30" as="geometry">
            <mxRectangle width="220" height="30" as="alternateBounds" />
          </mxGeometry>
        </mxCell>
        <mxCell id="C-vyLk0tnHw3VtMMgP7b-9" value="" style="shape=partialRectangle;collapsible=0;dropTarget=0;pointerEvents=0;fillColor=none;points=[[0,0.5],[1,0.5]];portConstraint=eastwest;top=0;left=0;right=0;bottom=0;" parent="C-vyLk0tnHw3VtMMgP7b-2" vertex="1">
          <mxGeometry y="90" width="250" height="30" as="geometry" />
        </mxCell>
        <mxCell id="C-vyLk0tnHw3VtMMgP7b-10" value="" style="shape=partialRectangle;overflow=hidden;connectable=0;fillColor=none;top=0;left=0;bottom=0;right=0;" parent="C-vyLk0tnHw3VtMMgP7b-9" vertex="1">
          <mxGeometry width="30" height="30" as="geometry">
            <mxRectangle width="30" height="30" as="alternateBounds" />
          </mxGeometry>
        </mxCell>
        <mxCell id="C-vyLk0tnHw3VtMMgP7b-11" value="order_date date NOT NULL" style="shape=partialRectangle;overflow=hidden;connectable=0;fillColor=none;top=0;left=0;bottom=0;right=0;align=left;spacingLeft=6;" parent="C-vyLk0tnHw3VtMMgP7b-9" vertex="1">
          <mxGeometry x="30" width="220" height="30" as="geometry">
            <mxRectangle width="220" height="30" as="alternateBounds" />
          </mxGeometry>
        </mxCell>
        <mxCell id="C-vyLk0tnHw3VtMMgP7b-13" value="Segreteria" style="shape=table;startSize=30;container=1;collapsible=1;childLayout=tableLayout;fixedRows=1;rowLines=0;fontStyle=1;align=center;resizeLast=1;fillColor=#0050ef;fontColor=#ffffff;strokeColor=#001DBC;" parent="1" vertex="1" collapsed="1">
          <mxGeometry x="280" y="285" width="100" height="30" as="geometry">
            <mxRectangle x="450" y="280" width="250" height="130" as="alternateBounds" />
          </mxGeometry>
        </mxCell>
        <mxCell id="C-vyLk0tnHw3VtMMgP7b-14" value="" style="shape=partialRectangle;collapsible=0;dropTarget=0;pointerEvents=0;fillColor=none;points=[[0,0.5],[1,0.5]];portConstraint=eastwest;top=0;left=0;right=0;bottom=1;" parent="C-vyLk0tnHw3VtMMgP7b-13" vertex="1">
          <mxGeometry y="30" width="250" height="30" as="geometry" />
        </mxCell>
        <mxCell id="C-vyLk0tnHw3VtMMgP7b-15" value="PK" style="shape=partialRectangle;overflow=hidden;connectable=0;fillColor=none;top=0;left=0;bottom=0;right=0;fontStyle=1;" parent="C-vyLk0tnHw3VtMMgP7b-14" vertex="1">
          <mxGeometry width="30" height="30" as="geometry">
            <mxRectangle width="30" height="30" as="alternateBounds" />
          </mxGeometry>
        </mxCell>
        <mxCell id="C-vyLk0tnHw3VtMMgP7b-16" value="shipment_id int NOT NULL " style="shape=partialRectangle;overflow=hidden;connectable=0;fillColor=none;top=0;left=0;bottom=0;right=0;align=left;spacingLeft=6;fontStyle=5;" parent="C-vyLk0tnHw3VtMMgP7b-14" vertex="1">
          <mxGeometry x="30" width="220" height="30" as="geometry">
            <mxRectangle width="220" height="30" as="alternateBounds" />
          </mxGeometry>
        </mxCell>
        <mxCell id="C-vyLk0tnHw3VtMMgP7b-17" value="" style="shape=partialRectangle;collapsible=0;dropTarget=0;pointerEvents=0;fillColor=none;points=[[0,0.5],[1,0.5]];portConstraint=eastwest;top=0;left=0;right=0;bottom=0;" parent="C-vyLk0tnHw3VtMMgP7b-13" vertex="1">
          <mxGeometry y="60" width="250" height="30" as="geometry" />
        </mxCell>
        <mxCell id="C-vyLk0tnHw3VtMMgP7b-18" value="FK1" style="shape=partialRectangle;overflow=hidden;connectable=0;fillColor=none;top=0;left=0;bottom=0;right=0;" parent="C-vyLk0tnHw3VtMMgP7b-17" vertex="1">
          <mxGeometry width="30" height="30" as="geometry">
            <mxRectangle width="30" height="30" as="alternateBounds" />
          </mxGeometry>
        </mxCell>
        <mxCell id="C-vyLk0tnHw3VtMMgP7b-19" value="order_id int NOT NULL" style="shape=partialRectangle;overflow=hidden;connectable=0;fillColor=none;top=0;left=0;bottom=0;right=0;align=left;spacingLeft=6;" parent="C-vyLk0tnHw3VtMMgP7b-17" vertex="1">
          <mxGeometry x="30" width="220" height="30" as="geometry">
            <mxRectangle width="220" height="30" as="alternateBounds" />
          </mxGeometry>
        </mxCell>
        <mxCell id="C-vyLk0tnHw3VtMMgP7b-20" value="" style="shape=partialRectangle;collapsible=0;dropTarget=0;pointerEvents=0;fillColor=none;points=[[0,0.5],[1,0.5]];portConstraint=eastwest;top=0;left=0;right=0;bottom=0;" parent="C-vyLk0tnHw3VtMMgP7b-13" vertex="1">
          <mxGeometry y="90" width="250" height="30" as="geometry" />
        </mxCell>
        <mxCell id="C-vyLk0tnHw3VtMMgP7b-21" value="" style="shape=partialRectangle;overflow=hidden;connectable=0;fillColor=none;top=0;left=0;bottom=0;right=0;" parent="C-vyLk0tnHw3VtMMgP7b-20" vertex="1">
          <mxGeometry width="30" height="30" as="geometry">
            <mxRectangle width="30" height="30" as="alternateBounds" />
          </mxGeometry>
        </mxCell>
        <mxCell id="C-vyLk0tnHw3VtMMgP7b-22" value="shipment_date date NOT NULL" style="shape=partialRectangle;overflow=hidden;connectable=0;fillColor=none;top=0;left=0;bottom=0;right=0;align=left;spacingLeft=6;" parent="C-vyLk0tnHw3VtMMgP7b-20" vertex="1">
          <mxGeometry x="30" width="220" height="30" as="geometry">
            <mxRectangle width="220" height="30" as="alternateBounds" />
          </mxGeometry>
        </mxCell>
        <mxCell id="C-vyLk0tnHw3VtMMgP7b-23" value="Anagrafica" style="shape=table;startSize=30;container=1;collapsible=1;childLayout=tableLayout;fixedRows=1;rowLines=0;fontStyle=1;align=center;resizeLast=1;fillColor=#1ba1e2;fontColor=#ffffff;strokeColor=#006EAF;" parent="1" vertex="1" collapsed="1">
          <mxGeometry x="20" y="285" width="100" height="30" as="geometry">
            <mxRectangle x="20" y="285" width="140" height="210" as="alternateBounds" />
          </mxGeometry>
        </mxCell>
        <mxCell id="C-vyLk0tnHw3VtMMgP7b-24" value="" style="shape=partialRectangle;collapsible=0;dropTarget=0;pointerEvents=0;fillColor=none;points=[[0,0.5],[1,0.5]];portConstraint=eastwest;top=0;left=0;right=0;bottom=1;" parent="C-vyLk0tnHw3VtMMgP7b-23" vertex="1">
          <mxGeometry y="30" width="140" height="30" as="geometry" />
        </mxCell>
        <mxCell id="C-vyLk0tnHw3VtMMgP7b-25" value="PK" style="shape=partialRectangle;overflow=hidden;connectable=0;fillColor=none;top=0;left=0;bottom=0;right=0;fontStyle=1;" parent="C-vyLk0tnHw3VtMMgP7b-24" vertex="1">
          <mxGeometry width="20" height="30" as="geometry">
            <mxRectangle width="20" height="30" as="alternateBounds" />
          </mxGeometry>
        </mxCell>
        <mxCell id="C-vyLk0tnHw3VtMMgP7b-26" value="Codice_Fiscale" style="shape=partialRectangle;overflow=hidden;connectable=0;fillColor=none;top=0;left=0;bottom=0;right=0;align=left;spacingLeft=6;fontStyle=1;" parent="C-vyLk0tnHw3VtMMgP7b-24" vertex="1">
          <mxGeometry x="20" width="120" height="30" as="geometry">
            <mxRectangle width="120" height="30" as="alternateBounds" />
          </mxGeometry>
        </mxCell>
        <mxCell id="C-vyLk0tnHw3VtMMgP7b-27" value="" style="shape=partialRectangle;collapsible=0;dropTarget=0;pointerEvents=0;fillColor=none;points=[[0,0.5],[1,0.5]];portConstraint=eastwest;top=0;left=0;right=0;bottom=0;" parent="C-vyLk0tnHw3VtMMgP7b-23" vertex="1">
          <mxGeometry y="60" width="140" height="140" as="geometry" />
        </mxCell>
        <mxCell id="C-vyLk0tnHw3VtMMgP7b-28" value="" style="shape=partialRectangle;overflow=hidden;connectable=0;fillColor=none;top=0;left=0;bottom=0;right=0;" parent="C-vyLk0tnHw3VtMMgP7b-27" vertex="1">
          <mxGeometry width="20" height="140" as="geometry">
            <mxRectangle width="20" height="140" as="alternateBounds" />
          </mxGeometry>
        </mxCell>
        <mxCell id="C-vyLk0tnHw3VtMMgP7b-29" value="Nome&#xa;Secondo Nome&#xa;Cognome&#xa;Secondo Cognome&#xa;Data_Nascita&#xa;Sesso&#xa;Luogo_Nascita&#xa;Nazionalità&#xa;" style="shape=partialRectangle;overflow=hidden;connectable=0;fillColor=none;top=0;left=0;bottom=0;right=0;align=left;spacingLeft=6;" parent="C-vyLk0tnHw3VtMMgP7b-27" vertex="1">
          <mxGeometry x="20" width="120" height="140" as="geometry">
            <mxRectangle width="120" height="140" as="alternateBounds" />
          </mxGeometry>
        </mxCell>
        <mxCell id="Meix0L9kaGej4XstKNyx-1" value="Studenti" style="shape=table;startSize=30;container=1;collapsible=1;childLayout=tableLayout;fixedRows=1;rowLines=0;fontStyle=1;align=center;resizeLast=1;fillColor=#a20025;fontColor=#ffffff;strokeColor=#6F0000;swimlaneFillColor=default;" parent="1" vertex="1" collapsed="1">
          <mxGeometry x="280" y="205" width="100" height="30" as="geometry">
            <mxRectangle x="280" y="50" width="250" height="130" as="alternateBounds" />
          </mxGeometry>
        </mxCell>
        <mxCell id="Meix0L9kaGej4XstKNyx-2" value="" style="shape=partialRectangle;collapsible=0;dropTarget=0;pointerEvents=0;fillColor=none;points=[[0,0.5],[1,0.5]];portConstraint=eastwest;top=0;left=0;right=0;bottom=1;" parent="Meix0L9kaGej4XstKNyx-1" vertex="1">
          <mxGeometry y="30" width="250" height="30" as="geometry" />
        </mxCell>
        <mxCell id="Meix0L9kaGej4XstKNyx-3" value="PK" style="shape=partialRectangle;overflow=hidden;connectable=0;fillColor=none;top=0;left=0;bottom=0;right=0;fontStyle=1;" parent="Meix0L9kaGej4XstKNyx-2" vertex="1">
          <mxGeometry width="30" height="30" as="geometry">
            <mxRectangle width="30" height="30" as="alternateBounds" />
          </mxGeometry>
        </mxCell>
        <mxCell id="Meix0L9kaGej4XstKNyx-4" value="shipment_id int NOT NULL " style="shape=partialRectangle;overflow=hidden;connectable=0;fillColor=none;top=0;left=0;bottom=0;right=0;align=left;spacingLeft=6;fontStyle=5;" parent="Meix0L9kaGej4XstKNyx-2" vertex="1">
          <mxGeometry x="30" width="220" height="30" as="geometry">
            <mxRectangle width="220" height="30" as="alternateBounds" />
          </mxGeometry>
        </mxCell>
        <mxCell id="Meix0L9kaGej4XstKNyx-5" value="" style="shape=partialRectangle;collapsible=0;dropTarget=0;pointerEvents=0;fillColor=none;points=[[0,0.5],[1,0.5]];portConstraint=eastwest;top=0;left=0;right=0;bottom=0;" parent="Meix0L9kaGej4XstKNyx-1" vertex="1">
          <mxGeometry y="60" width="250" height="30" as="geometry" />
        </mxCell>
        <mxCell id="Meix0L9kaGej4XstKNyx-6" value="FK1" style="shape=partialRectangle;overflow=hidden;connectable=0;fillColor=none;top=0;left=0;bottom=0;right=0;" parent="Meix0L9kaGej4XstKNyx-5" vertex="1">
          <mxGeometry width="30" height="30" as="geometry">
            <mxRectangle width="30" height="30" as="alternateBounds" />
          </mxGeometry>
        </mxCell>
        <mxCell id="Meix0L9kaGej4XstKNyx-7" value="order_id int NOT NULL" style="shape=partialRectangle;overflow=hidden;connectable=0;fillColor=none;top=0;left=0;bottom=0;right=0;align=left;spacingLeft=6;" parent="Meix0L9kaGej4XstKNyx-5" vertex="1">
          <mxGeometry x="30" width="220" height="30" as="geometry">
            <mxRectangle width="220" height="30" as="alternateBounds" />
          </mxGeometry>
        </mxCell>
        <mxCell id="Meix0L9kaGej4XstKNyx-8" value="" style="shape=partialRectangle;collapsible=0;dropTarget=0;pointerEvents=0;fillColor=none;points=[[0,0.5],[1,0.5]];portConstraint=eastwest;top=0;left=0;right=0;bottom=0;" parent="Meix0L9kaGej4XstKNyx-1" vertex="1">
          <mxGeometry y="90" width="250" height="30" as="geometry" />
        </mxCell>
        <mxCell id="Meix0L9kaGej4XstKNyx-9" value="" style="shape=partialRectangle;overflow=hidden;connectable=0;fillColor=none;top=0;left=0;bottom=0;right=0;" parent="Meix0L9kaGej4XstKNyx-8" vertex="1">
          <mxGeometry width="30" height="30" as="geometry">
            <mxRectangle width="30" height="30" as="alternateBounds" />
          </mxGeometry>
        </mxCell>
        <mxCell id="Meix0L9kaGej4XstKNyx-10" value="shipment_date date NOT NULL" style="shape=partialRectangle;overflow=hidden;connectable=0;fillColor=none;top=0;left=0;bottom=0;right=0;align=left;spacingLeft=6;" parent="Meix0L9kaGej4XstKNyx-8" vertex="1">
          <mxGeometry x="30" width="220" height="30" as="geometry">
            <mxRectangle width="220" height="30" as="alternateBounds" />
          </mxGeometry>
        </mxCell>
        <mxCell id="Meix0L9kaGej4XstKNyx-14" value="Corsi" style="shape=table;startSize=30;container=1;collapsible=1;childLayout=tableLayout;fixedRows=1;rowLines=0;fontStyle=1;align=center;resizeLast=1;fillColor=#6a00ff;fontColor=#ffffff;strokeColor=#3700CC;" parent="1" vertex="1" collapsed="1">
          <mxGeometry x="818" y="359" width="100" height="30" as="geometry">
            <mxRectangle x="470" y="300" width="250" height="130" as="alternateBounds" />
          </mxGeometry>
        </mxCell>
        <mxCell id="Meix0L9kaGej4XstKNyx-15" value="" style="shape=partialRectangle;collapsible=0;dropTarget=0;pointerEvents=0;fillColor=none;points=[[0,0.5],[1,0.5]];portConstraint=eastwest;top=0;left=0;right=0;bottom=1;" parent="Meix0L9kaGej4XstKNyx-14" vertex="1">
          <mxGeometry y="30" width="250" height="30" as="geometry" />
        </mxCell>
        <mxCell id="Meix0L9kaGej4XstKNyx-16" value="PK" style="shape=partialRectangle;overflow=hidden;connectable=0;fillColor=none;top=0;left=0;bottom=0;right=0;fontStyle=1;" parent="Meix0L9kaGej4XstKNyx-15" vertex="1">
          <mxGeometry width="30" height="30" as="geometry">
            <mxRectangle width="30" height="30" as="alternateBounds" />
          </mxGeometry>
        </mxCell>
        <mxCell id="Meix0L9kaGej4XstKNyx-17" value="shipment_id int NOT NULL " style="shape=partialRectangle;overflow=hidden;connectable=0;fillColor=none;top=0;left=0;bottom=0;right=0;align=left;spacingLeft=6;fontStyle=5;" parent="Meix0L9kaGej4XstKNyx-15" vertex="1">
          <mxGeometry x="30" width="220" height="30" as="geometry">
            <mxRectangle width="220" height="30" as="alternateBounds" />
          </mxGeometry>
        </mxCell>
        <mxCell id="Meix0L9kaGej4XstKNyx-18" value="" style="shape=partialRectangle;collapsible=0;dropTarget=0;pointerEvents=0;fillColor=none;points=[[0,0.5],[1,0.5]];portConstraint=eastwest;top=0;left=0;right=0;bottom=0;" parent="Meix0L9kaGej4XstKNyx-14" vertex="1">
          <mxGeometry y="60" width="250" height="30" as="geometry" />
        </mxCell>
        <mxCell id="Meix0L9kaGej4XstKNyx-19" value="FK1" style="shape=partialRectangle;overflow=hidden;connectable=0;fillColor=none;top=0;left=0;bottom=0;right=0;" parent="Meix0L9kaGej4XstKNyx-18" vertex="1">
          <mxGeometry width="30" height="30" as="geometry">
            <mxRectangle width="30" height="30" as="alternateBounds" />
          </mxGeometry>
        </mxCell>
        <mxCell id="Meix0L9kaGej4XstKNyx-20" value="order_id int NOT NULL" style="shape=partialRectangle;overflow=hidden;connectable=0;fillColor=none;top=0;left=0;bottom=0;right=0;align=left;spacingLeft=6;" parent="Meix0L9kaGej4XstKNyx-18" vertex="1">
          <mxGeometry x="30" width="220" height="30" as="geometry">
            <mxRectangle width="220" height="30" as="alternateBounds" />
          </mxGeometry>
        </mxCell>
        <mxCell id="Meix0L9kaGej4XstKNyx-21" value="" style="shape=partialRectangle;collapsible=0;dropTarget=0;pointerEvents=0;fillColor=none;points=[[0,0.5],[1,0.5]];portConstraint=eastwest;top=0;left=0;right=0;bottom=0;" parent="Meix0L9kaGej4XstKNyx-14" vertex="1">
          <mxGeometry y="90" width="250" height="30" as="geometry" />
        </mxCell>
        <mxCell id="Meix0L9kaGej4XstKNyx-22" value="" style="shape=partialRectangle;overflow=hidden;connectable=0;fillColor=none;top=0;left=0;bottom=0;right=0;" parent="Meix0L9kaGej4XstKNyx-21" vertex="1">
          <mxGeometry width="30" height="30" as="geometry">
            <mxRectangle width="30" height="30" as="alternateBounds" />
          </mxGeometry>
        </mxCell>
        <mxCell id="Meix0L9kaGej4XstKNyx-23" value="shipment_date date NOT NULL" style="shape=partialRectangle;overflow=hidden;connectable=0;fillColor=none;top=0;left=0;bottom=0;right=0;align=left;spacingLeft=6;" parent="Meix0L9kaGej4XstKNyx-21" vertex="1">
          <mxGeometry x="30" width="220" height="30" as="geometry">
            <mxRectangle width="220" height="30" as="alternateBounds" />
          </mxGeometry>
        </mxCell>
        <mxCell id="Meix0L9kaGej4XstKNyx-24" value="Insegnamenti" style="shape=table;startSize=30;container=1;collapsible=1;childLayout=tableLayout;fixedRows=1;rowLines=0;fontStyle=1;align=center;resizeLast=1;fillColor=#6a00ff;fontColor=#ffffff;strokeColor=#3700CC;" parent="1" vertex="1" collapsed="1">
          <mxGeometry x="536" y="389" width="120" height="30" as="geometry">
            <mxRectangle x="480" y="310" width="250" height="130" as="alternateBounds" />
          </mxGeometry>
        </mxCell>
        <mxCell id="Meix0L9kaGej4XstKNyx-25" value="" style="shape=partialRectangle;collapsible=0;dropTarget=0;pointerEvents=0;fillColor=none;points=[[0,0.5],[1,0.5]];portConstraint=eastwest;top=0;left=0;right=0;bottom=1;" parent="Meix0L9kaGej4XstKNyx-24" vertex="1">
          <mxGeometry y="30" width="250" height="30" as="geometry" />
        </mxCell>
        <mxCell id="Meix0L9kaGej4XstKNyx-26" value="PK" style="shape=partialRectangle;overflow=hidden;connectable=0;fillColor=none;top=0;left=0;bottom=0;right=0;fontStyle=1;" parent="Meix0L9kaGej4XstKNyx-25" vertex="1">
          <mxGeometry width="30" height="30" as="geometry">
            <mxRectangle width="30" height="30" as="alternateBounds" />
          </mxGeometry>
        </mxCell>
        <mxCell id="Meix0L9kaGej4XstKNyx-27" value="shipment_id int NOT NULL " style="shape=partialRectangle;overflow=hidden;connectable=0;fillColor=none;top=0;left=0;bottom=0;right=0;align=left;spacingLeft=6;fontStyle=5;" parent="Meix0L9kaGej4XstKNyx-25" vertex="1">
          <mxGeometry x="30" width="220" height="30" as="geometry">
            <mxRectangle width="220" height="30" as="alternateBounds" />
          </mxGeometry>
        </mxCell>
        <mxCell id="Meix0L9kaGej4XstKNyx-28" value="" style="shape=partialRectangle;collapsible=0;dropTarget=0;pointerEvents=0;fillColor=none;points=[[0,0.5],[1,0.5]];portConstraint=eastwest;top=0;left=0;right=0;bottom=0;" parent="Meix0L9kaGej4XstKNyx-24" vertex="1">
          <mxGeometry y="60" width="250" height="30" as="geometry" />
        </mxCell>
        <mxCell id="Meix0L9kaGej4XstKNyx-29" value="FK1" style="shape=partialRectangle;overflow=hidden;connectable=0;fillColor=none;top=0;left=0;bottom=0;right=0;" parent="Meix0L9kaGej4XstKNyx-28" vertex="1">
          <mxGeometry width="30" height="30" as="geometry">
            <mxRectangle width="30" height="30" as="alternateBounds" />
          </mxGeometry>
        </mxCell>
        <mxCell id="Meix0L9kaGej4XstKNyx-30" value="order_id int NOT NULL" style="shape=partialRectangle;overflow=hidden;connectable=0;fillColor=none;top=0;left=0;bottom=0;right=0;align=left;spacingLeft=6;" parent="Meix0L9kaGej4XstKNyx-28" vertex="1">
          <mxGeometry x="30" width="220" height="30" as="geometry">
            <mxRectangle width="220" height="30" as="alternateBounds" />
          </mxGeometry>
        </mxCell>
        <mxCell id="Meix0L9kaGej4XstKNyx-31" value="" style="shape=partialRectangle;collapsible=0;dropTarget=0;pointerEvents=0;fillColor=none;points=[[0,0.5],[1,0.5]];portConstraint=eastwest;top=0;left=0;right=0;bottom=0;" parent="Meix0L9kaGej4XstKNyx-24" vertex="1">
          <mxGeometry y="90" width="250" height="30" as="geometry" />
        </mxCell>
        <mxCell id="Meix0L9kaGej4XstKNyx-32" value="" style="shape=partialRectangle;overflow=hidden;connectable=0;fillColor=none;top=0;left=0;bottom=0;right=0;" parent="Meix0L9kaGej4XstKNyx-31" vertex="1">
          <mxGeometry width="30" height="30" as="geometry">
            <mxRectangle width="30" height="30" as="alternateBounds" />
          </mxGeometry>
        </mxCell>
        <mxCell id="Meix0L9kaGej4XstKNyx-33" value="shipment_date date NOT NULL" style="shape=partialRectangle;overflow=hidden;connectable=0;fillColor=none;top=0;left=0;bottom=0;right=0;align=left;spacingLeft=6;" parent="Meix0L9kaGej4XstKNyx-31" vertex="1">
          <mxGeometry x="30" width="220" height="30" as="geometry">
            <mxRectangle width="220" height="30" as="alternateBounds" />
          </mxGeometry>
        </mxCell>
        <mxCell id="Meix0L9kaGej4XstKNyx-48" style="edgeStyle=orthogonalEdgeStyle;rounded=0;orthogonalLoop=1;jettySize=auto;html=1;fillColor=#6a00ff;strokeColor=#3700CC;exitX=0;exitY=0.5;exitDx=0;exitDy=0;entryX=0.333;entryY=-0.029;entryDx=0;entryDy=0;entryPerimeter=0;" parent="1" source="Fh2huoGaFI3x0_w4W2nC-63" target="Meix0L9kaGej4XstKNyx-24" edge="1">
          <mxGeometry relative="1" as="geometry">
            <mxPoint x="566" y="290" as="sourcePoint" />
            <mxPoint x="576" y="380" as="targetPoint" />
            <Array as="points">
              <mxPoint x="576" y="300" />
            </Array>
          </mxGeometry>
        </mxCell>
        <mxCell id="Meix0L9kaGej4XstKNyx-49" style="edgeStyle=orthogonalEdgeStyle;rounded=0;orthogonalLoop=1;jettySize=auto;html=1;exitX=1;exitY=0.5;exitDx=0;exitDy=0;entryX=0.18;entryY=0.1;entryDx=0;entryDy=0;entryPerimeter=0;fillColor=#6a00ff;strokeColor=#3700CC;" parent="1" source="Fh2huoGaFI3x0_w4W2nC-67" target="Meix0L9kaGej4XstKNyx-14" edge="1">
          <mxGeometry relative="1" as="geometry">
            <mxPoint x="836" y="313" as="sourcePoint" />
            <Array as="points">
              <mxPoint x="836" y="303" />
            </Array>
          </mxGeometry>
        </mxCell>
        <mxCell id="Meix0L9kaGej4XstKNyx-68" style="edgeStyle=orthogonalEdgeStyle;rounded=0;orthogonalLoop=1;jettySize=auto;html=1;exitX=0.5;exitY=1;exitDx=0;exitDy=0;entryX=0.75;entryY=0;entryDx=0;entryDy=0;fillColor=#a20025;strokeColor=#6F0000;" parent="1" source="Meix0L9kaGej4XstKNyx-65" target="Meix0L9kaGej4XstKNyx-14" edge="1">
          <mxGeometry relative="1" as="geometry" />
        </mxCell>
        <mxCell id="Meix0L9kaGej4XstKNyx-69" style="edgeStyle=orthogonalEdgeStyle;rounded=0;orthogonalLoop=1;jettySize=auto;html=1;exitX=0.5;exitY=0;exitDx=0;exitDy=0;entryX=1;entryY=0.5;entryDx=0;entryDy=0;fillColor=#a20025;strokeColor=#6F0000;" parent="1" source="Meix0L9kaGej4XstKNyx-65" target="Meix0L9kaGej4XstKNyx-1" edge="1">
          <mxGeometry relative="1" as="geometry" />
        </mxCell>
        <mxCell id="Meix0L9kaGej4XstKNyx-65" value="" style="rhombus;whiteSpace=wrap;html=1;fillColor=#a20025;fontColor=#ffffff;strokeColor=#6F0000;" parent="1" vertex="1">
          <mxGeometry x="873" y="273" width="40" height="40" as="geometry" />
        </mxCell>
        <mxCell id="Meix0L9kaGej4XstKNyx-73" value="Calendario" style="shape=table;startSize=30;container=1;collapsible=1;childLayout=tableLayout;fixedRows=1;rowLines=0;fontStyle=1;align=center;resizeLast=1;fillColor=#6a00ff;fontColor=#ffffff;strokeColor=#3700CC;" parent="1" vertex="1" collapsed="1">
          <mxGeometry x="668" y="635" width="100" height="30" as="geometry">
            <mxRectangle x="470" y="300" width="250" height="130" as="alternateBounds" />
          </mxGeometry>
        </mxCell>
        <mxCell id="Meix0L9kaGej4XstKNyx-74" value="" style="shape=partialRectangle;collapsible=0;dropTarget=0;pointerEvents=0;fillColor=none;points=[[0,0.5],[1,0.5]];portConstraint=eastwest;top=0;left=0;right=0;bottom=1;" parent="Meix0L9kaGej4XstKNyx-73" vertex="1">
          <mxGeometry y="30" width="250" height="30" as="geometry" />
        </mxCell>
        <mxCell id="Meix0L9kaGej4XstKNyx-75" value="PK" style="shape=partialRectangle;overflow=hidden;connectable=0;fillColor=none;top=0;left=0;bottom=0;right=0;fontStyle=1;" parent="Meix0L9kaGej4XstKNyx-74" vertex="1">
          <mxGeometry width="30" height="30" as="geometry">
            <mxRectangle width="30" height="30" as="alternateBounds" />
          </mxGeometry>
        </mxCell>
        <mxCell id="Meix0L9kaGej4XstKNyx-76" value="shipment_id int NOT NULL " style="shape=partialRectangle;overflow=hidden;connectable=0;fillColor=none;top=0;left=0;bottom=0;right=0;align=left;spacingLeft=6;fontStyle=5;" parent="Meix0L9kaGej4XstKNyx-74" vertex="1">
          <mxGeometry x="30" width="220" height="30" as="geometry">
            <mxRectangle width="220" height="30" as="alternateBounds" />
          </mxGeometry>
        </mxCell>
        <mxCell id="Meix0L9kaGej4XstKNyx-77" value="" style="shape=partialRectangle;collapsible=0;dropTarget=0;pointerEvents=0;fillColor=none;points=[[0,0.5],[1,0.5]];portConstraint=eastwest;top=0;left=0;right=0;bottom=0;" parent="Meix0L9kaGej4XstKNyx-73" vertex="1">
          <mxGeometry y="60" width="250" height="30" as="geometry" />
        </mxCell>
        <mxCell id="Meix0L9kaGej4XstKNyx-78" value="FK1" style="shape=partialRectangle;overflow=hidden;connectable=0;fillColor=none;top=0;left=0;bottom=0;right=0;" parent="Meix0L9kaGej4XstKNyx-77" vertex="1">
          <mxGeometry width="30" height="30" as="geometry">
            <mxRectangle width="30" height="30" as="alternateBounds" />
          </mxGeometry>
        </mxCell>
        <mxCell id="Meix0L9kaGej4XstKNyx-79" value="order_id int NOT NULL" style="shape=partialRectangle;overflow=hidden;connectable=0;fillColor=none;top=0;left=0;bottom=0;right=0;align=left;spacingLeft=6;" parent="Meix0L9kaGej4XstKNyx-77" vertex="1">
          <mxGeometry x="30" width="220" height="30" as="geometry">
            <mxRectangle width="220" height="30" as="alternateBounds" />
          </mxGeometry>
        </mxCell>
        <mxCell id="Meix0L9kaGej4XstKNyx-80" value="" style="shape=partialRectangle;collapsible=0;dropTarget=0;pointerEvents=0;fillColor=none;points=[[0,0.5],[1,0.5]];portConstraint=eastwest;top=0;left=0;right=0;bottom=0;" parent="Meix0L9kaGej4XstKNyx-73" vertex="1">
          <mxGeometry y="90" width="250" height="30" as="geometry" />
        </mxCell>
        <mxCell id="Meix0L9kaGej4XstKNyx-81" value="" style="shape=partialRectangle;overflow=hidden;connectable=0;fillColor=none;top=0;left=0;bottom=0;right=0;" parent="Meix0L9kaGej4XstKNyx-80" vertex="1">
          <mxGeometry width="30" height="30" as="geometry">
            <mxRectangle width="30" height="30" as="alternateBounds" />
          </mxGeometry>
        </mxCell>
        <mxCell id="Meix0L9kaGej4XstKNyx-82" value="shipment_date date NOT NULL" style="shape=partialRectangle;overflow=hidden;connectable=0;fillColor=none;top=0;left=0;bottom=0;right=0;align=left;spacingLeft=6;" parent="Meix0L9kaGej4XstKNyx-80" vertex="1">
          <mxGeometry x="30" width="220" height="30" as="geometry">
            <mxRectangle width="220" height="30" as="alternateBounds" />
          </mxGeometry>
        </mxCell>
        <mxCell id="Meix0L9kaGej4XstKNyx-86" style="edgeStyle=orthogonalEdgeStyle;rounded=0;orthogonalLoop=1;jettySize=auto;html=1;exitX=0.5;exitY=1;exitDx=0;exitDy=0;entryX=0.5;entryY=0;entryDx=0;entryDy=0;fillColor=#6a00ff;strokeColor=#3700CC;" parent="1" source="Meix0L9kaGej4XstKNyx-84" target="Meix0L9kaGej4XstKNyx-73" edge="1">
          <mxGeometry relative="1" as="geometry" />
        </mxCell>
        <mxCell id="Meix0L9kaGej4XstKNyx-184" style="edgeStyle=orthogonalEdgeStyle;rounded=0;orthogonalLoop=1;jettySize=auto;html=1;exitX=0;exitY=0.5;exitDx=0;exitDy=0;fillColor=#6a00ff;strokeColor=#3700CC;" parent="1" source="Meix0L9kaGej4XstKNyx-84" edge="1">
          <mxGeometry relative="1" as="geometry">
            <mxPoint x="636" y="420" as="targetPoint" />
            <Array as="points">
              <mxPoint x="636" y="585" />
              <mxPoint x="636" y="450" />
            </Array>
          </mxGeometry>
        </mxCell>
        <mxCell id="Meix0L9kaGej4XstKNyx-84" value="" style="rhombus;whiteSpace=wrap;html=1;fillColor=#6a00ff;fontColor=#ffffff;strokeColor=#3700CC;" parent="1" vertex="1">
          <mxGeometry x="698" y="565" width="40" height="40" as="geometry" />
        </mxCell>
        <mxCell id="Meix0L9kaGej4XstKNyx-89" value="Appello" style="shape=table;startSize=30;container=1;collapsible=1;childLayout=tableLayout;fixedRows=1;rowLines=0;fontStyle=1;align=center;resizeLast=1;fillColor=#6a00ff;fontColor=#ffffff;strokeColor=#3700CC;" parent="1" vertex="1" collapsed="1">
          <mxGeometry x="668" y="775" width="100" height="30" as="geometry">
            <mxRectangle x="470" y="300" width="250" height="130" as="alternateBounds" />
          </mxGeometry>
        </mxCell>
        <mxCell id="Meix0L9kaGej4XstKNyx-90" value="" style="shape=partialRectangle;collapsible=0;dropTarget=0;pointerEvents=0;fillColor=none;points=[[0,0.5],[1,0.5]];portConstraint=eastwest;top=0;left=0;right=0;bottom=1;" parent="Meix0L9kaGej4XstKNyx-89" vertex="1">
          <mxGeometry y="30" width="250" height="30" as="geometry" />
        </mxCell>
        <mxCell id="Meix0L9kaGej4XstKNyx-91" value="PK" style="shape=partialRectangle;overflow=hidden;connectable=0;fillColor=none;top=0;left=0;bottom=0;right=0;fontStyle=1;" parent="Meix0L9kaGej4XstKNyx-90" vertex="1">
          <mxGeometry width="30" height="30" as="geometry">
            <mxRectangle width="30" height="30" as="alternateBounds" />
          </mxGeometry>
        </mxCell>
        <mxCell id="Meix0L9kaGej4XstKNyx-92" value="shipment_id int NOT NULL " style="shape=partialRectangle;overflow=hidden;connectable=0;fillColor=none;top=0;left=0;bottom=0;right=0;align=left;spacingLeft=6;fontStyle=5;" parent="Meix0L9kaGej4XstKNyx-90" vertex="1">
          <mxGeometry x="30" width="220" height="30" as="geometry">
            <mxRectangle width="220" height="30" as="alternateBounds" />
          </mxGeometry>
        </mxCell>
        <mxCell id="Meix0L9kaGej4XstKNyx-93" value="" style="shape=partialRectangle;collapsible=0;dropTarget=0;pointerEvents=0;fillColor=none;points=[[0,0.5],[1,0.5]];portConstraint=eastwest;top=0;left=0;right=0;bottom=0;" parent="Meix0L9kaGej4XstKNyx-89" vertex="1">
          <mxGeometry y="60" width="250" height="30" as="geometry" />
        </mxCell>
        <mxCell id="Meix0L9kaGej4XstKNyx-94" value="FK1" style="shape=partialRectangle;overflow=hidden;connectable=0;fillColor=none;top=0;left=0;bottom=0;right=0;" parent="Meix0L9kaGej4XstKNyx-93" vertex="1">
          <mxGeometry width="30" height="30" as="geometry">
            <mxRectangle width="30" height="30" as="alternateBounds" />
          </mxGeometry>
        </mxCell>
        <mxCell id="Meix0L9kaGej4XstKNyx-95" value="order_id int NOT NULL" style="shape=partialRectangle;overflow=hidden;connectable=0;fillColor=none;top=0;left=0;bottom=0;right=0;align=left;spacingLeft=6;" parent="Meix0L9kaGej4XstKNyx-93" vertex="1">
          <mxGeometry x="30" width="220" height="30" as="geometry">
            <mxRectangle width="220" height="30" as="alternateBounds" />
          </mxGeometry>
        </mxCell>
        <mxCell id="Meix0L9kaGej4XstKNyx-96" value="" style="shape=partialRectangle;collapsible=0;dropTarget=0;pointerEvents=0;fillColor=none;points=[[0,0.5],[1,0.5]];portConstraint=eastwest;top=0;left=0;right=0;bottom=0;" parent="Meix0L9kaGej4XstKNyx-89" vertex="1">
          <mxGeometry y="90" width="250" height="30" as="geometry" />
        </mxCell>
        <mxCell id="Meix0L9kaGej4XstKNyx-97" value="" style="shape=partialRectangle;overflow=hidden;connectable=0;fillColor=none;top=0;left=0;bottom=0;right=0;" parent="Meix0L9kaGej4XstKNyx-96" vertex="1">
          <mxGeometry width="30" height="30" as="geometry">
            <mxRectangle width="30" height="30" as="alternateBounds" />
          </mxGeometry>
        </mxCell>
        <mxCell id="Meix0L9kaGej4XstKNyx-98" value="shipment_date date NOT NULL" style="shape=partialRectangle;overflow=hidden;connectable=0;fillColor=none;top=0;left=0;bottom=0;right=0;align=left;spacingLeft=6;" parent="Meix0L9kaGej4XstKNyx-96" vertex="1">
          <mxGeometry x="30" width="220" height="30" as="geometry">
            <mxRectangle width="220" height="30" as="alternateBounds" />
          </mxGeometry>
        </mxCell>
        <mxCell id="Meix0L9kaGej4XstKNyx-101" style="edgeStyle=orthogonalEdgeStyle;rounded=0;orthogonalLoop=1;jettySize=auto;html=1;exitX=0.5;exitY=0;exitDx=0;exitDy=0;entryX=0.5;entryY=1;entryDx=0;entryDy=0;fillColor=#6a00ff;strokeColor=#3700CC;" parent="1" source="Meix0L9kaGej4XstKNyx-99" target="Meix0L9kaGej4XstKNyx-73" edge="1">
          <mxGeometry relative="1" as="geometry" />
        </mxCell>
        <mxCell id="Meix0L9kaGej4XstKNyx-102" style="edgeStyle=orthogonalEdgeStyle;rounded=0;orthogonalLoop=1;jettySize=auto;html=1;exitX=0.5;exitY=1;exitDx=0;exitDy=0;entryX=0.5;entryY=0;entryDx=0;entryDy=0;fillColor=#6a00ff;strokeColor=#3700CC;" parent="1" source="Meix0L9kaGej4XstKNyx-99" target="Meix0L9kaGej4XstKNyx-89" edge="1">
          <mxGeometry relative="1" as="geometry" />
        </mxCell>
        <mxCell id="Meix0L9kaGej4XstKNyx-99" value="" style="rhombus;whiteSpace=wrap;html=1;fillColor=#6a00ff;fontColor=#ffffff;strokeColor=#3700CC;" parent="1" vertex="1">
          <mxGeometry x="698" y="695" width="40" height="40" as="geometry" />
        </mxCell>
        <mxCell id="Meix0L9kaGej4XstKNyx-104" style="edgeStyle=orthogonalEdgeStyle;rounded=0;orthogonalLoop=1;jettySize=auto;html=1;exitX=0.5;exitY=1;exitDx=0;exitDy=0;entryX=1;entryY=0.5;entryDx=0;entryDy=0;fillColor=#a20025;strokeColor=#6F0000;" parent="1" source="Meix0L9kaGej4XstKNyx-103" target="Meix0L9kaGej4XstKNyx-89" edge="1">
          <mxGeometry relative="1" as="geometry" />
        </mxCell>
        <mxCell id="Meix0L9kaGej4XstKNyx-105" style="edgeStyle=orthogonalEdgeStyle;rounded=0;orthogonalLoop=1;jettySize=auto;html=1;exitX=0.5;exitY=0;exitDx=0;exitDy=0;entryX=1;entryY=0.25;entryDx=0;entryDy=0;fillColor=#a20025;strokeColor=#6F0000;" parent="1" source="Meix0L9kaGej4XstKNyx-103" target="Meix0L9kaGej4XstKNyx-1" edge="1">
          <mxGeometry relative="1" as="geometry" />
        </mxCell>
        <mxCell id="Meix0L9kaGej4XstKNyx-103" value="" style="rhombus;whiteSpace=wrap;html=1;fillColor=#a20025;fontColor=#ffffff;strokeColor=#6F0000;" parent="1" vertex="1">
          <mxGeometry x="776" y="695" width="40" height="40" as="geometry" />
        </mxCell>
        <mxCell id="Meix0L9kaGej4XstKNyx-108" value="Rinuncia agli studi" style="endArrow=none;html=1;rounded=0;fillColor=#a20025;strokeColor=#6F0000;" parent="1" edge="1">
          <mxGeometry y="-15" width="50" height="50" relative="1" as="geometry">
            <mxPoint x="360" y="810" as="sourcePoint" />
            <mxPoint x="440" y="810" as="targetPoint" />
            <mxPoint as="offset" />
          </mxGeometry>
        </mxCell>
        <mxCell id="Meix0L9kaGej4XstKNyx-109" value="" style="endArrow=none;html=1;rounded=0;fillColor=#a20025;strokeColor=#6F0000;" parent="1" edge="1">
          <mxGeometry width="50" height="50" relative="1" as="geometry">
            <mxPoint x="400" y="810" as="sourcePoint" />
            <mxPoint x="400" y="650" as="targetPoint" />
          </mxGeometry>
        </mxCell>
        <mxCell id="Meix0L9kaGej4XstKNyx-110" value="" style="endArrow=none;html=1;rounded=0;fillColor=#a20025;strokeColor=#6F0000;" parent="1" edge="1">
          <mxGeometry width="50" height="50" relative="1" as="geometry">
            <mxPoint x="320" y="650" as="sourcePoint" />
            <mxPoint x="400" y="650" as="targetPoint" />
          </mxGeometry>
        </mxCell>
        <mxCell id="Meix0L9kaGej4XstKNyx-111" value="" style="endArrow=none;html=1;rounded=0;fillColor=#a20025;strokeColor=#6F0000;" parent="1" edge="1">
          <mxGeometry width="50" height="50" relative="1" as="geometry">
            <mxPoint x="320" y="690" as="sourcePoint" />
            <mxPoint x="320" y="650" as="targetPoint" />
          </mxGeometry>
        </mxCell>
        <mxCell id="Meix0L9kaGej4XstKNyx-112" value="LET&#39;S GO" style="ellipse;whiteSpace=wrap;html=1;fillColor=none;fontColor=#ffffff;strokeColor=#6F0000;" parent="1" vertex="1">
          <mxGeometry x="300" y="680" width="40" height="40" as="geometry" />
        </mxCell>
        <mxCell id="Meix0L9kaGej4XstKNyx-113" value="" style="endArrow=none;html=1;rounded=0;fillColor=#a20025;strokeColor=#6F0000;" parent="1" edge="1">
          <mxGeometry width="50" height="50" relative="1" as="geometry">
            <mxPoint x="400" y="690" as="sourcePoint" />
            <mxPoint x="360" y="650" as="targetPoint" />
          </mxGeometry>
        </mxCell>
        <mxCell id="Meix0L9kaGej4XstKNyx-114" value="Appello_in" style="shape=table;startSize=30;container=1;collapsible=1;childLayout=tableLayout;fixedRows=1;rowLines=0;fontStyle=1;align=center;resizeLast=1;fillColor=#6a00ff;fontColor=#ffffff;strokeColor=#3700CC;" parent="1" vertex="1" collapsed="1">
          <mxGeometry x="816" y="773.25" width="100" height="30" as="geometry">
            <mxRectangle x="470" y="300" width="250" height="130" as="alternateBounds" />
          </mxGeometry>
        </mxCell>
        <mxCell id="Meix0L9kaGej4XstKNyx-115" value="" style="shape=partialRectangle;collapsible=0;dropTarget=0;pointerEvents=0;fillColor=none;points=[[0,0.5],[1,0.5]];portConstraint=eastwest;top=0;left=0;right=0;bottom=1;" parent="Meix0L9kaGej4XstKNyx-114" vertex="1">
          <mxGeometry y="30" width="250" height="30" as="geometry" />
        </mxCell>
        <mxCell id="Meix0L9kaGej4XstKNyx-116" value="PK" style="shape=partialRectangle;overflow=hidden;connectable=0;fillColor=none;top=0;left=0;bottom=0;right=0;fontStyle=1;" parent="Meix0L9kaGej4XstKNyx-115" vertex="1">
          <mxGeometry width="30" height="30" as="geometry">
            <mxRectangle width="30" height="30" as="alternateBounds" />
          </mxGeometry>
        </mxCell>
        <mxCell id="Meix0L9kaGej4XstKNyx-117" value="shipment_id int NOT NULL " style="shape=partialRectangle;overflow=hidden;connectable=0;fillColor=none;top=0;left=0;bottom=0;right=0;align=left;spacingLeft=6;fontStyle=5;" parent="Meix0L9kaGej4XstKNyx-115" vertex="1">
          <mxGeometry x="30" width="220" height="30" as="geometry">
            <mxRectangle width="220" height="30" as="alternateBounds" />
          </mxGeometry>
        </mxCell>
        <mxCell id="Meix0L9kaGej4XstKNyx-118" value="" style="shape=partialRectangle;collapsible=0;dropTarget=0;pointerEvents=0;fillColor=none;points=[[0,0.5],[1,0.5]];portConstraint=eastwest;top=0;left=0;right=0;bottom=0;" parent="Meix0L9kaGej4XstKNyx-114" vertex="1">
          <mxGeometry y="60" width="250" height="30" as="geometry" />
        </mxCell>
        <mxCell id="Meix0L9kaGej4XstKNyx-119" value="FK1" style="shape=partialRectangle;overflow=hidden;connectable=0;fillColor=none;top=0;left=0;bottom=0;right=0;" parent="Meix0L9kaGej4XstKNyx-118" vertex="1">
          <mxGeometry width="30" height="30" as="geometry">
            <mxRectangle width="30" height="30" as="alternateBounds" />
          </mxGeometry>
        </mxCell>
        <mxCell id="Meix0L9kaGej4XstKNyx-120" value="order_id int NOT NULL" style="shape=partialRectangle;overflow=hidden;connectable=0;fillColor=none;top=0;left=0;bottom=0;right=0;align=left;spacingLeft=6;" parent="Meix0L9kaGej4XstKNyx-118" vertex="1">
          <mxGeometry x="30" width="220" height="30" as="geometry">
            <mxRectangle width="220" height="30" as="alternateBounds" />
          </mxGeometry>
        </mxCell>
        <mxCell id="Meix0L9kaGej4XstKNyx-121" value="" style="shape=partialRectangle;collapsible=0;dropTarget=0;pointerEvents=0;fillColor=none;points=[[0,0.5],[1,0.5]];portConstraint=eastwest;top=0;left=0;right=0;bottom=0;" parent="Meix0L9kaGej4XstKNyx-114" vertex="1">
          <mxGeometry y="90" width="250" height="30" as="geometry" />
        </mxCell>
        <mxCell id="Meix0L9kaGej4XstKNyx-122" value="" style="shape=partialRectangle;overflow=hidden;connectable=0;fillColor=none;top=0;left=0;bottom=0;right=0;" parent="Meix0L9kaGej4XstKNyx-121" vertex="1">
          <mxGeometry width="30" height="30" as="geometry">
            <mxRectangle width="30" height="30" as="alternateBounds" />
          </mxGeometry>
        </mxCell>
        <mxCell id="Meix0L9kaGej4XstKNyx-123" value="shipment_date date NOT NULL" style="shape=partialRectangle;overflow=hidden;connectable=0;fillColor=none;top=0;left=0;bottom=0;right=0;align=left;spacingLeft=6;" parent="Meix0L9kaGej4XstKNyx-121" vertex="1">
          <mxGeometry x="30" width="220" height="30" as="geometry">
            <mxRectangle width="220" height="30" as="alternateBounds" />
          </mxGeometry>
        </mxCell>
        <mxCell id="Meix0L9kaGej4XstKNyx-124" value="Studenti_in" style="shape=table;startSize=30;container=1;collapsible=1;childLayout=tableLayout;fixedRows=1;rowLines=0;fontStyle=1;align=center;resizeLast=1;fillColor=#008a00;fontColor=#ffffff;strokeColor=#005700;" parent="1" vertex="1" collapsed="1">
          <mxGeometry x="280" y="155" width="100" height="30" as="geometry">
            <mxRectangle x="280" y="155" width="250" height="130" as="alternateBounds" />
          </mxGeometry>
        </mxCell>
        <mxCell id="Meix0L9kaGej4XstKNyx-125" value="" style="shape=partialRectangle;collapsible=0;dropTarget=0;pointerEvents=0;fillColor=none;points=[[0,0.5],[1,0.5]];portConstraint=eastwest;top=0;left=0;right=0;bottom=1;" parent="Meix0L9kaGej4XstKNyx-124" vertex="1">
          <mxGeometry y="30" width="250" height="30" as="geometry" />
        </mxCell>
        <mxCell id="Meix0L9kaGej4XstKNyx-126" value="PK" style="shape=partialRectangle;overflow=hidden;connectable=0;fillColor=none;top=0;left=0;bottom=0;right=0;fontStyle=1;" parent="Meix0L9kaGej4XstKNyx-125" vertex="1">
          <mxGeometry width="30" height="30" as="geometry">
            <mxRectangle width="30" height="30" as="alternateBounds" />
          </mxGeometry>
        </mxCell>
        <mxCell id="Meix0L9kaGej4XstKNyx-127" value="shipment_id int NOT NULL " style="shape=partialRectangle;overflow=hidden;connectable=0;fillColor=none;top=0;left=0;bottom=0;right=0;align=left;spacingLeft=6;fontStyle=5;" parent="Meix0L9kaGej4XstKNyx-125" vertex="1">
          <mxGeometry x="30" width="220" height="30" as="geometry">
            <mxRectangle width="220" height="30" as="alternateBounds" />
          </mxGeometry>
        </mxCell>
        <mxCell id="Meix0L9kaGej4XstKNyx-128" value="" style="shape=partialRectangle;collapsible=0;dropTarget=0;pointerEvents=0;fillColor=none;points=[[0,0.5],[1,0.5]];portConstraint=eastwest;top=0;left=0;right=0;bottom=0;" parent="Meix0L9kaGej4XstKNyx-124" vertex="1">
          <mxGeometry y="60" width="250" height="30" as="geometry" />
        </mxCell>
        <mxCell id="Meix0L9kaGej4XstKNyx-129" value="FK1" style="shape=partialRectangle;overflow=hidden;connectable=0;fillColor=none;top=0;left=0;bottom=0;right=0;" parent="Meix0L9kaGej4XstKNyx-128" vertex="1">
          <mxGeometry width="30" height="30" as="geometry">
            <mxRectangle width="30" height="30" as="alternateBounds" />
          </mxGeometry>
        </mxCell>
        <mxCell id="Meix0L9kaGej4XstKNyx-130" value="order_id int NOT NULL" style="shape=partialRectangle;overflow=hidden;connectable=0;fillColor=none;top=0;left=0;bottom=0;right=0;align=left;spacingLeft=6;" parent="Meix0L9kaGej4XstKNyx-128" vertex="1">
          <mxGeometry x="30" width="220" height="30" as="geometry">
            <mxRectangle width="220" height="30" as="alternateBounds" />
          </mxGeometry>
        </mxCell>
        <mxCell id="Meix0L9kaGej4XstKNyx-131" value="" style="shape=partialRectangle;collapsible=0;dropTarget=0;pointerEvents=0;fillColor=none;points=[[0,0.5],[1,0.5]];portConstraint=eastwest;top=0;left=0;right=0;bottom=0;" parent="Meix0L9kaGej4XstKNyx-124" vertex="1">
          <mxGeometry y="90" width="250" height="30" as="geometry" />
        </mxCell>
        <mxCell id="Meix0L9kaGej4XstKNyx-132" value="" style="shape=partialRectangle;overflow=hidden;connectable=0;fillColor=none;top=0;left=0;bottom=0;right=0;" parent="Meix0L9kaGej4XstKNyx-131" vertex="1">
          <mxGeometry width="30" height="30" as="geometry">
            <mxRectangle width="30" height="30" as="alternateBounds" />
          </mxGeometry>
        </mxCell>
        <mxCell id="Meix0L9kaGej4XstKNyx-133" value="shipment_date date NOT NULL" style="shape=partialRectangle;overflow=hidden;connectable=0;fillColor=none;top=0;left=0;bottom=0;right=0;align=left;spacingLeft=6;" parent="Meix0L9kaGej4XstKNyx-131" vertex="1">
          <mxGeometry x="30" width="220" height="30" as="geometry">
            <mxRectangle width="220" height="30" as="alternateBounds" />
          </mxGeometry>
        </mxCell>
        <mxCell id="Meix0L9kaGej4XstKNyx-136" style="edgeStyle=orthogonalEdgeStyle;rounded=0;orthogonalLoop=1;jettySize=auto;html=1;exitX=0.5;exitY=1;exitDx=0;exitDy=0;entryX=0.454;entryY=-0.047;entryDx=0;entryDy=0;entryPerimeter=0;fillColor=#008a00;strokeColor=#005700;" parent="1" source="Meix0L9kaGej4XstKNyx-138" target="Meix0L9kaGej4XstKNyx-14" edge="1">
          <mxGeometry relative="1" as="geometry">
            <mxPoint x="863" y="326.5" as="targetPoint" />
          </mxGeometry>
        </mxCell>
        <mxCell id="Meix0L9kaGej4XstKNyx-137" style="edgeStyle=orthogonalEdgeStyle;rounded=0;orthogonalLoop=1;jettySize=auto;html=1;exitX=0.5;exitY=0;exitDx=0;exitDy=0;entryX=1;entryY=0.5;entryDx=0;entryDy=0;fillColor=#008a00;strokeColor=#005700;" parent="1" source="Meix0L9kaGej4XstKNyx-138" target="Meix0L9kaGej4XstKNyx-124" edge="1">
          <mxGeometry relative="1" as="geometry">
            <mxPoint x="340" y="120" as="targetPoint" />
          </mxGeometry>
        </mxCell>
        <mxCell id="Meix0L9kaGej4XstKNyx-138" value="" style="rhombus;whiteSpace=wrap;html=1;fillColor=#008a00;fontColor=#ffffff;strokeColor=#005700;" parent="1" vertex="1">
          <mxGeometry x="843" y="240.5" width="40" height="40" as="geometry" />
        </mxCell>
        <mxCell id="Meix0L9kaGej4XstKNyx-140" style="edgeStyle=orthogonalEdgeStyle;rounded=0;orthogonalLoop=1;jettySize=auto;html=1;exitX=0.5;exitY=0;exitDx=0;exitDy=0;entryX=1;entryY=0.5;entryDx=0;entryDy=0;fillColor=#6a00ff;strokeColor=#3700CC;" parent="1" source="Meix0L9kaGej4XstKNyx-142" target="Meix0L9kaGej4XstKNyx-73" edge="1">
          <mxGeometry relative="1" as="geometry">
            <mxPoint x="906" y="660" as="targetPoint" />
          </mxGeometry>
        </mxCell>
        <mxCell id="Meix0L9kaGej4XstKNyx-141" style="edgeStyle=orthogonalEdgeStyle;rounded=0;orthogonalLoop=1;jettySize=auto;html=1;exitX=0.5;exitY=1;exitDx=0;exitDy=0;entryX=0.5;entryY=0;entryDx=0;entryDy=0;fillColor=#6a00ff;strokeColor=#3700CC;" parent="1" source="Meix0L9kaGej4XstKNyx-142" target="Meix0L9kaGej4XstKNyx-114" edge="1">
          <mxGeometry relative="1" as="geometry">
            <mxPoint x="866" y="768.25" as="targetPoint" />
          </mxGeometry>
        </mxCell>
        <mxCell id="Meix0L9kaGej4XstKNyx-142" value="" style="rhombus;whiteSpace=wrap;html=1;fillColor=#6a00ff;fontColor=#ffffff;strokeColor=#3700CC;" parent="1" vertex="1">
          <mxGeometry x="846" y="688.25" width="40" height="40" as="geometry" />
        </mxCell>
        <mxCell id="Meix0L9kaGej4XstKNyx-144" style="edgeStyle=orthogonalEdgeStyle;rounded=0;orthogonalLoop=1;jettySize=auto;html=1;exitX=0.5;exitY=1;exitDx=0;exitDy=0;entryX=1;entryY=0.5;entryDx=0;entryDy=0;fillColor=#008a00;strokeColor=#005700;" parent="1" source="Meix0L9kaGej4XstKNyx-143" target="Meix0L9kaGej4XstKNyx-114" edge="1">
          <mxGeometry relative="1" as="geometry" />
        </mxCell>
        <mxCell id="Meix0L9kaGej4XstKNyx-145" style="edgeStyle=orthogonalEdgeStyle;rounded=0;orthogonalLoop=1;jettySize=auto;html=1;exitX=0.5;exitY=0;exitDx=0;exitDy=0;fillColor=#008a00;strokeColor=#005700;" parent="1" source="Meix0L9kaGej4XstKNyx-143" edge="1">
          <mxGeometry relative="1" as="geometry">
            <mxPoint x="380" y="160" as="targetPoint" />
            <Array as="points">
              <mxPoint x="938" y="160" />
              <mxPoint x="380" y="160" />
            </Array>
          </mxGeometry>
        </mxCell>
        <mxCell id="Meix0L9kaGej4XstKNyx-143" value="" style="rhombus;whiteSpace=wrap;html=1;fillColor=#008a00;fontColor=#ffffff;strokeColor=#005700;" parent="1" vertex="1">
          <mxGeometry x="918" y="688.25" width="40" height="40" as="geometry" />
        </mxCell>
        <mxCell id="Meix0L9kaGej4XstKNyx-175" value="&lt;font style=&quot;font-size: 8px;&quot;&gt;(0:n)&lt;/font&gt;" style="text;html=1;strokeColor=none;fillColor=none;align=center;verticalAlign=middle;whiteSpace=wrap;rounded=0;" parent="1" vertex="1">
          <mxGeometry x="546" y="297.5" width="40" height="20" as="geometry" />
        </mxCell>
        <mxCell id="Meix0L9kaGej4XstKNyx-176" value="&lt;font style=&quot;font-size: 8px;&quot;&gt;(1:n)&lt;/font&gt;" style="text;html=1;strokeColor=none;fillColor=none;align=center;verticalAlign=middle;whiteSpace=wrap;rounded=0;" parent="1" vertex="1">
          <mxGeometry x="816" y="313" width="40" height="20" as="geometry" />
        </mxCell>
        <mxCell id="Meix0L9kaGej4XstKNyx-178" value="&lt;font style=&quot;font-size: 8px;&quot;&gt;(1:1)&lt;/font&gt;" style="text;html=1;strokeColor=none;fillColor=none;align=center;verticalAlign=middle;whiteSpace=wrap;rounded=0;" parent="1" vertex="1">
          <mxGeometry x="873" y="253" width="40" height="20" as="geometry" />
        </mxCell>
        <mxCell id="Meix0L9kaGej4XstKNyx-179" value="&lt;font style=&quot;font-size: 8px;&quot;&gt;(0:n)&lt;/font&gt;" style="text;html=1;strokeColor=none;fillColor=none;align=center;verticalAlign=middle;whiteSpace=wrap;rounded=0;" parent="1" vertex="1">
          <mxGeometry x="873" y="308" width="40" height="20" as="geometry" />
        </mxCell>
        <mxCell id="Meix0L9kaGej4XstKNyx-180" value="&lt;font style=&quot;font-size: 8px;&quot;&gt;(1:1)&lt;/font&gt;" style="text;html=1;strokeColor=none;fillColor=none;align=center;verticalAlign=middle;whiteSpace=wrap;rounded=0;" parent="1" vertex="1">
          <mxGeometry x="843" y="220.5" width="40" height="20" as="geometry" />
        </mxCell>
        <mxCell id="Meix0L9kaGej4XstKNyx-181" value="&lt;font style=&quot;font-size: 8px;&quot;&gt;(0:n)&lt;/font&gt;" style="text;html=1;strokeColor=none;fillColor=none;align=center;verticalAlign=middle;whiteSpace=wrap;rounded=0;" parent="1" vertex="1">
          <mxGeometry x="843" y="273" width="40" height="20" as="geometry" />
        </mxCell>
        <mxCell id="Meix0L9kaGej4XstKNyx-185" value="Legenda:" style="swimlane;whiteSpace=wrap;html=1;" parent="1" vertex="1">
          <mxGeometry x="40" y="675" width="160" height="155" as="geometry">
            <mxRectangle x="40" y="675" width="160" height="30" as="alternateBounds" />
          </mxGeometry>
        </mxCell>
        <mxCell id="Meix0L9kaGej4XstKNyx-186" value="" style="rounded=1;whiteSpace=wrap;html=1;fillColor=#6a00ff;fontColor=#ffffff;strokeColor=#3700CC;" parent="Meix0L9kaGej4XstKNyx-185" vertex="1">
          <mxGeometry x="10" y="35" width="10" height="10" as="geometry" />
        </mxCell>
        <mxCell id="Meix0L9kaGej4XstKNyx-188" value="&lt;div align=&quot;left&quot;&gt;Dati Carriera&lt;br&gt;&lt;/div&gt;" style="text;html=1;strokeColor=none;fillColor=none;align=left;verticalAlign=middle;whiteSpace=wrap;rounded=0;" parent="Meix0L9kaGej4XstKNyx-185" vertex="1">
          <mxGeometry x="30" y="35" width="140" height="10" as="geometry" />
        </mxCell>
        <mxCell id="Meix0L9kaGej4XstKNyx-191" value="" style="rounded=1;whiteSpace=wrap;html=1;fillColor=#a20025;fontColor=#ffffff;strokeColor=#6F0000;" parent="Meix0L9kaGej4XstKNyx-185" vertex="1">
          <mxGeometry x="10" y="55" width="10" height="10" as="geometry" />
        </mxCell>
        <mxCell id="Meix0L9kaGej4XstKNyx-192" value="Dati Studente Attivo" style="text;html=1;strokeColor=none;fillColor=none;align=left;verticalAlign=middle;whiteSpace=wrap;rounded=0;" parent="Meix0L9kaGej4XstKNyx-185" vertex="1">
          <mxGeometry x="30" y="55" width="140" height="10" as="geometry" />
        </mxCell>
        <mxCell id="Meix0L9kaGej4XstKNyx-193" value="" style="rounded=1;whiteSpace=wrap;html=1;fillColor=#008a00;fontColor=#ffffff;strokeColor=#005700;" parent="Meix0L9kaGej4XstKNyx-185" vertex="1">
          <mxGeometry x="10" y="75" width="10" height="10" as="geometry" />
        </mxCell>
        <mxCell id="Meix0L9kaGej4XstKNyx-194" value="Dati Studente Inattivo" style="text;html=1;strokeColor=none;fillColor=none;align=left;verticalAlign=middle;whiteSpace=wrap;rounded=0;" parent="Meix0L9kaGej4XstKNyx-185" vertex="1">
          <mxGeometry x="30" y="75" width="140" height="10" as="geometry" />
        </mxCell>
        <mxCell id="Meix0L9kaGej4XstKNyx-195" value="" style="rounded=1;whiteSpace=wrap;html=1;fillColor=#f0a30a;fontColor=#000000;strokeColor=#BD7000;" parent="Meix0L9kaGej4XstKNyx-185" vertex="1">
          <mxGeometry x="10" y="95" width="10" height="10" as="geometry" />
        </mxCell>
        <mxCell id="Meix0L9kaGej4XstKNyx-196" value="Dati Docente" style="text;html=1;strokeColor=none;fillColor=none;align=left;verticalAlign=middle;whiteSpace=wrap;rounded=0;" parent="Meix0L9kaGej4XstKNyx-185" vertex="1">
          <mxGeometry x="30" y="95" width="140" height="10" as="geometry" />
        </mxCell>
        <mxCell id="Meix0L9kaGej4XstKNyx-197" value="" style="rounded=1;whiteSpace=wrap;html=1;fillColor=#0050ef;fontColor=#ffffff;strokeColor=#001DBC;" parent="Meix0L9kaGej4XstKNyx-185" vertex="1">
          <mxGeometry x="10" y="115" width="10" height="10" as="geometry" />
        </mxCell>
        <mxCell id="Meix0L9kaGej4XstKNyx-198" value="Dati Segreteria" style="text;html=1;strokeColor=none;fillColor=none;align=left;verticalAlign=middle;whiteSpace=wrap;rounded=0;" parent="Meix0L9kaGej4XstKNyx-185" vertex="1">
          <mxGeometry x="30" y="115" width="140" height="10" as="geometry" />
        </mxCell>
        <mxCell id="Meix0L9kaGej4XstKNyx-200" value="" style="rounded=1;whiteSpace=wrap;html=1;fillColor=#1ba1e2;fontColor=#ffffff;strokeColor=#006EAF;" parent="Meix0L9kaGej4XstKNyx-185" vertex="1">
          <mxGeometry x="10" y="135" width="10" height="10" as="geometry" />
        </mxCell>
        <mxCell id="Meix0L9kaGej4XstKNyx-201" value="&lt;div align=&quot;left&quot;&gt;Dati Anagrafici Utenti&lt;br&gt;&lt;/div&gt;" style="text;html=1;strokeColor=none;fillColor=none;align=left;verticalAlign=middle;whiteSpace=wrap;rounded=0;" parent="Meix0L9kaGej4XstKNyx-185" vertex="1">
          <mxGeometry x="30" y="135" width="140" height="10" as="geometry" />
        </mxCell>
        <mxCell id="tvtfN2h-CVbwLjO-advl-1" value="&lt;font style=&quot;font-size: 8px;&quot;&gt;(0:n)&lt;/font&gt;" style="text;html=1;strokeColor=none;fillColor=none;align=center;verticalAlign=middle;whiteSpace=wrap;rounded=0;" parent="1" vertex="1">
          <mxGeometry x="668" y="565" width="40" height="20" as="geometry" />
        </mxCell>
        <mxCell id="tvtfN2h-CVbwLjO-advl-2" value="&lt;font style=&quot;font-size: 8px;&quot;&gt;(1:1)&lt;/font&gt;" style="text;html=1;strokeColor=none;fillColor=none;align=center;verticalAlign=middle;whiteSpace=wrap;rounded=0;" parent="1" vertex="1">
          <mxGeometry x="698" y="601" width="40" height="20" as="geometry" />
        </mxCell>
        <mxCell id="tvtfN2h-CVbwLjO-advl-3" value="&lt;font style=&quot;font-size: 8px;&quot;&gt;(0:n)&lt;/font&gt;" style="text;html=1;strokeColor=none;fillColor=none;align=center;verticalAlign=middle;whiteSpace=wrap;rounded=0;" parent="1" vertex="1">
          <mxGeometry x="698" y="675" width="40" height="20" as="geometry" />
        </mxCell>
        <mxCell id="tvtfN2h-CVbwLjO-advl-4" value="&lt;font style=&quot;font-size: 8px;&quot;&gt;(1:1)&lt;/font&gt;" style="text;html=1;strokeColor=none;fillColor=none;align=center;verticalAlign=middle;whiteSpace=wrap;rounded=0;" parent="1" vertex="1">
          <mxGeometry x="698" y="735" width="40" height="20" as="geometry" />
        </mxCell>
        <mxCell id="tvtfN2h-CVbwLjO-advl-5" value="&lt;font style=&quot;font-size: 8px;&quot;&gt;(0:n)&lt;/font&gt;" style="text;html=1;strokeColor=none;fillColor=none;align=center;verticalAlign=middle;whiteSpace=wrap;rounded=0;" parent="1" vertex="1">
          <mxGeometry x="846" y="667.25" width="40" height="20" as="geometry" />
        </mxCell>
        <mxCell id="tvtfN2h-CVbwLjO-advl-6" value="&lt;div&gt;&lt;font style=&quot;font-size: 8px;&quot;&gt;(1:1)&lt;/font&gt;&lt;/div&gt;" style="text;html=1;strokeColor=none;fillColor=none;align=center;verticalAlign=middle;whiteSpace=wrap;rounded=0;" parent="1" vertex="1">
          <mxGeometry x="846" y="728.25" width="40" height="20" as="geometry" />
        </mxCell>
        <mxCell id="tvtfN2h-CVbwLjO-advl-7" value="&lt;font style=&quot;font-size: 8px;&quot;&gt;(0:n)&lt;/font&gt;" style="text;html=1;strokeColor=none;fillColor=none;align=center;verticalAlign=middle;whiteSpace=wrap;rounded=0;" parent="1" vertex="1">
          <mxGeometry x="776" y="675" width="40" height="20" as="geometry" />
        </mxCell>
        <mxCell id="tvtfN2h-CVbwLjO-advl-8" value="&lt;font style=&quot;font-size: 8px;&quot;&gt;(1:1)&lt;/font&gt;" style="text;html=1;strokeColor=none;fillColor=none;align=center;verticalAlign=middle;whiteSpace=wrap;rounded=0;" parent="1" vertex="1">
          <mxGeometry x="776" y="730" width="40" height="20" as="geometry" />
        </mxCell>
        <mxCell id="tvtfN2h-CVbwLjO-advl-9" value="&lt;font style=&quot;font-size: 8px;&quot;&gt;(0:n)&lt;/font&gt;" style="text;html=1;strokeColor=none;fillColor=none;align=center;verticalAlign=middle;whiteSpace=wrap;rounded=0;" parent="1" vertex="1">
          <mxGeometry x="918" y="667.25" width="40" height="20" as="geometry" />
        </mxCell>
        <mxCell id="tvtfN2h-CVbwLjO-advl-10" value="&lt;font style=&quot;font-size: 8px;&quot;&gt;(1:1)&lt;/font&gt;" style="text;html=1;strokeColor=none;fillColor=none;align=center;verticalAlign=middle;whiteSpace=wrap;rounded=0;" parent="1" vertex="1">
          <mxGeometry x="918" y="722.25" width="40" height="20" as="geometry" />
        </mxCell>
        <mxCell id="H5iCMWs7Rw5b1ZI76Mmx-6" value="&lt;font style=&quot;font-size: 7px;&quot;&gt;segue&lt;/font&gt;" style="text;html=1;strokeColor=none;fillColor=none;align=left;verticalAlign=middle;whiteSpace=wrap;rounded=0;" parent="1" vertex="1">
          <mxGeometry x="881" y="283" width="45" height="15" as="geometry" />
        </mxCell>
        <mxCell id="H5iCMWs7Rw5b1ZI76Mmx-9" value="&lt;font style=&quot;font-size: 7px;&quot;&gt;seguiva&lt;/font&gt;" style="text;html=1;strokeColor=none;fillColor=none;align=left;verticalAlign=middle;whiteSpace=wrap;rounded=0;" parent="1" vertex="1">
          <mxGeometry x="848.5" y="250" width="45" height="15" as="geometry" />
        </mxCell>
        <mxCell id="H5iCMWs7Rw5b1ZI76Mmx-11" value="&lt;div align=&quot;left&quot;&gt;&lt;font style=&quot;font-size: 8px;&quot;&gt;previsti&lt;br&gt;&lt;/font&gt;&lt;/div&gt;" style="text;html=1;strokeColor=none;fillColor=none;align=left;verticalAlign=middle;whiteSpace=wrap;rounded=0;" parent="1" vertex="1">
          <mxGeometry x="704" y="574" width="45" height="15" as="geometry" />
        </mxCell>
        <mxCell id="H5iCMWs7Rw5b1ZI76Mmx-12" value="&lt;font style=&quot;font-size: 8px;&quot;&gt;esame&lt;/font&gt;" style="text;html=1;strokeColor=none;fillColor=none;align=left;verticalAlign=middle;whiteSpace=wrap;rounded=0;" parent="1" vertex="1">
          <mxGeometry x="704" y="705" width="45" height="15" as="geometry" />
        </mxCell>
        <mxCell id="H5iCMWs7Rw5b1ZI76Mmx-13" value="&lt;font style=&quot;font-size: 8px;&quot;&gt;esame_in&lt;/font&gt;" style="text;html=1;strokeColor=none;fillColor=none;align=left;verticalAlign=middle;whiteSpace=wrap;rounded=0;" parent="1" vertex="1">
          <mxGeometry x="848" y="697.75" width="45" height="15" as="geometry" />
        </mxCell>
        <mxCell id="H5iCMWs7Rw5b1ZI76Mmx-14" value="&lt;div align=&quot;left&quot;&gt;&lt;font style=&quot;font-size: 8px;&quot;&gt;iscritto&lt;/font&gt;&lt;br&gt;&lt;/div&gt;" style="text;html=1;strokeColor=none;fillColor=none;align=left;verticalAlign=middle;whiteSpace=wrap;rounded=0;" parent="1" vertex="1">
          <mxGeometry x="782" y="704.5" width="45" height="15" as="geometry" />
        </mxCell>
        <mxCell id="H5iCMWs7Rw5b1ZI76Mmx-15" value="&lt;div align=&quot;left&quot;&gt;&lt;font style=&quot;font-size: 8px;&quot;&gt;iscritto_in&lt;/font&gt;&lt;br&gt;&lt;/div&gt;" style="text;html=1;strokeColor=none;fillColor=none;align=left;verticalAlign=middle;whiteSpace=wrap;rounded=0;" parent="1" vertex="1">
          <mxGeometry x="918" y="696.75" width="45" height="15" as="geometry" />
        </mxCell>
        <mxCell id="Fh2huoGaFI3x0_w4W2nC-1" value="Prop." style="shape=table;startSize=30;container=1;collapsible=1;childLayout=tableLayout;fixedRows=1;rowLines=0;fontStyle=1;align=center;resizeLast=1;fillColor=#6a00ff;fontColor=#ffffff;strokeColor=#3700CC;" parent="1" vertex="1" collapsed="1">
          <mxGeometry x="664" y="467" width="102" height="30" as="geometry">
            <mxRectangle x="480" y="310" width="250" height="130" as="alternateBounds" />
          </mxGeometry>
        </mxCell>
        <mxCell id="Fh2huoGaFI3x0_w4W2nC-2" value="" style="shape=partialRectangle;collapsible=0;dropTarget=0;pointerEvents=0;fillColor=none;points=[[0,0.5],[1,0.5]];portConstraint=eastwest;top=0;left=0;right=0;bottom=1;" parent="Fh2huoGaFI3x0_w4W2nC-1" vertex="1">
          <mxGeometry y="30" width="250" height="30" as="geometry" />
        </mxCell>
        <mxCell id="Fh2huoGaFI3x0_w4W2nC-3" value="PK" style="shape=partialRectangle;overflow=hidden;connectable=0;fillColor=none;top=0;left=0;bottom=0;right=0;fontStyle=1;" parent="Fh2huoGaFI3x0_w4W2nC-2" vertex="1">
          <mxGeometry width="30" height="30" as="geometry">
            <mxRectangle width="30" height="30" as="alternateBounds" />
          </mxGeometry>
        </mxCell>
        <mxCell id="Fh2huoGaFI3x0_w4W2nC-4" value="shipment_id int NOT NULL " style="shape=partialRectangle;overflow=hidden;connectable=0;fillColor=none;top=0;left=0;bottom=0;right=0;align=left;spacingLeft=6;fontStyle=5;" parent="Fh2huoGaFI3x0_w4W2nC-2" vertex="1">
          <mxGeometry x="30" width="220" height="30" as="geometry">
            <mxRectangle width="220" height="30" as="alternateBounds" />
          </mxGeometry>
        </mxCell>
        <mxCell id="Fh2huoGaFI3x0_w4W2nC-5" value="" style="shape=partialRectangle;collapsible=0;dropTarget=0;pointerEvents=0;fillColor=none;points=[[0,0.5],[1,0.5]];portConstraint=eastwest;top=0;left=0;right=0;bottom=0;" parent="Fh2huoGaFI3x0_w4W2nC-1" vertex="1">
          <mxGeometry y="60" width="250" height="30" as="geometry" />
        </mxCell>
        <mxCell id="Fh2huoGaFI3x0_w4W2nC-6" value="FK1" style="shape=partialRectangle;overflow=hidden;connectable=0;fillColor=none;top=0;left=0;bottom=0;right=0;" parent="Fh2huoGaFI3x0_w4W2nC-5" vertex="1">
          <mxGeometry width="30" height="30" as="geometry">
            <mxRectangle width="30" height="30" as="alternateBounds" />
          </mxGeometry>
        </mxCell>
        <mxCell id="Fh2huoGaFI3x0_w4W2nC-7" value="order_id int NOT NULL" style="shape=partialRectangle;overflow=hidden;connectable=0;fillColor=none;top=0;left=0;bottom=0;right=0;align=left;spacingLeft=6;" parent="Fh2huoGaFI3x0_w4W2nC-5" vertex="1">
          <mxGeometry x="30" width="220" height="30" as="geometry">
            <mxRectangle width="220" height="30" as="alternateBounds" />
          </mxGeometry>
        </mxCell>
        <mxCell id="Fh2huoGaFI3x0_w4W2nC-8" value="" style="shape=partialRectangle;collapsible=0;dropTarget=0;pointerEvents=0;fillColor=none;points=[[0,0.5],[1,0.5]];portConstraint=eastwest;top=0;left=0;right=0;bottom=0;" parent="Fh2huoGaFI3x0_w4W2nC-1" vertex="1">
          <mxGeometry y="90" width="250" height="30" as="geometry" />
        </mxCell>
        <mxCell id="Fh2huoGaFI3x0_w4W2nC-9" value="" style="shape=partialRectangle;overflow=hidden;connectable=0;fillColor=none;top=0;left=0;bottom=0;right=0;" parent="Fh2huoGaFI3x0_w4W2nC-8" vertex="1">
          <mxGeometry width="30" height="30" as="geometry">
            <mxRectangle width="30" height="30" as="alternateBounds" />
          </mxGeometry>
        </mxCell>
        <mxCell id="Fh2huoGaFI3x0_w4W2nC-10" value="shipment_date date NOT NULL" style="shape=partialRectangle;overflow=hidden;connectable=0;fillColor=none;top=0;left=0;bottom=0;right=0;align=left;spacingLeft=6;" parent="Fh2huoGaFI3x0_w4W2nC-8" vertex="1">
          <mxGeometry x="30" width="220" height="30" as="geometry">
            <mxRectangle width="220" height="30" as="alternateBounds" />
          </mxGeometry>
        </mxCell>
        <mxCell id="Fh2huoGaFI3x0_w4W2nC-13" style="edgeStyle=orthogonalEdgeStyle;rounded=0;orthogonalLoop=1;jettySize=auto;html=1;exitX=0.5;exitY=0;exitDx=0;exitDy=0;fillColor=#6a00ff;strokeColor=#3700CC;entryX=0.25;entryY=1;entryDx=0;entryDy=0;" parent="1" source="Fh2huoGaFI3x0_w4W2nC-11" target="Fh2huoGaFI3x0_w4W2nC-53" edge="1">
          <mxGeometry relative="1" as="geometry">
            <mxPoint x="526" y="430" as="targetPoint" />
          </mxGeometry>
        </mxCell>
        <mxCell id="Fh2huoGaFI3x0_w4W2nC-14" style="edgeStyle=orthogonalEdgeStyle;rounded=0;orthogonalLoop=1;jettySize=auto;html=1;exitX=0.5;exitY=1;exitDx=0;exitDy=0;fillColor=#6a00ff;strokeColor=#3700CC;entryX=0.221;entryY=0.055;entryDx=0;entryDy=0;entryPerimeter=0;" parent="1" source="Fh2huoGaFI3x0_w4W2nC-11" target="Fh2huoGaFI3x0_w4W2nC-1" edge="1">
          <mxGeometry relative="1" as="geometry">
            <mxPoint x="686" y="460" as="targetPoint" />
          </mxGeometry>
        </mxCell>
        <mxCell id="Fh2huoGaFI3x0_w4W2nC-11" value="" style="rhombus;whiteSpace=wrap;html=1;fillColor=#6a00ff;fontColor=#ffffff;strokeColor=#3700CC;" parent="1" vertex="1">
          <mxGeometry x="667" y="369" width="40" height="40" as="geometry" />
        </mxCell>
        <mxCell id="Fh2huoGaFI3x0_w4W2nC-36" style="edgeStyle=orthogonalEdgeStyle;rounded=0;orthogonalLoop=1;jettySize=auto;html=1;fillColor=#6a00ff;strokeColor=#3700CC;entryX=0.804;entryY=0.042;entryDx=0;entryDy=0;entryPerimeter=0;" parent="1" source="Fh2huoGaFI3x0_w4W2nC-12" target="Fh2huoGaFI3x0_w4W2nC-1" edge="1">
          <mxGeometry relative="1" as="geometry">
            <mxPoint x="746" y="460" as="targetPoint" />
            <Array as="points" />
          </mxGeometry>
        </mxCell>
        <mxCell id="FwGBuFkiA4nT809ndPrz-8" style="edgeStyle=orthogonalEdgeStyle;rounded=0;orthogonalLoop=1;jettySize=auto;html=1;entryX=0.796;entryY=1;entryDx=0;entryDy=0;entryPerimeter=0;fillColor=#6a00ff;strokeColor=#3700CC;" parent="1" source="Fh2huoGaFI3x0_w4W2nC-12" target="Fh2huoGaFI3x0_w4W2nC-53" edge="1">
          <mxGeometry relative="1" as="geometry" />
        </mxCell>
        <mxCell id="Fh2huoGaFI3x0_w4W2nC-12" value="" style="rhombus;whiteSpace=wrap;html=1;fillColor=#6a00ff;fontColor=#ffffff;strokeColor=#3700CC;" parent="1" vertex="1">
          <mxGeometry x="726" y="369" width="40" height="40" as="geometry" />
        </mxCell>
        <mxCell id="Fh2huoGaFI3x0_w4W2nC-17" value="&lt;font style=&quot;font-size: 8px;&quot;&gt;(0:n)&lt;/font&gt;" style="text;html=1;strokeColor=none;fillColor=none;align=center;verticalAlign=middle;whiteSpace=wrap;rounded=0;" parent="1" vertex="1">
          <mxGeometry x="667" y="349" width="40" height="20" as="geometry" />
        </mxCell>
        <mxCell id="Fh2huoGaFI3x0_w4W2nC-18" value="&lt;font style=&quot;font-size: 8px;&quot;&gt;(0:n)&lt;/font&gt;" style="text;html=1;strokeColor=none;fillColor=none;align=center;verticalAlign=middle;whiteSpace=wrap;rounded=0;" parent="1" vertex="1">
          <mxGeometry x="726" y="349" width="40" height="20" as="geometry" />
        </mxCell>
        <mxCell id="Fh2huoGaFI3x0_w4W2nC-20" value="&lt;font style=&quot;font-size: 8px;&quot;&gt;(1:1)&lt;/font&gt;" style="text;html=1;strokeColor=none;fillColor=none;align=center;verticalAlign=middle;whiteSpace=wrap;rounded=0;" parent="1" vertex="1">
          <mxGeometry x="667" y="405" width="40" height="20" as="geometry" />
        </mxCell>
        <mxCell id="Fh2huoGaFI3x0_w4W2nC-23" value="Insegnanti" style="shape=table;startSize=30;container=1;collapsible=1;childLayout=tableLayout;fixedRows=1;rowLines=0;fontStyle=1;align=center;resizeLast=1;fillColor=#fa6800;strokeColor=#C73500;fontColor=#FFFFFF;swimlaneFillColor=none;" parent="1" vertex="1" collapsed="1">
          <mxGeometry x="280" y="544" width="90" height="30" as="geometry">
            <mxRectangle x="50" y="300" width="250" height="130" as="alternateBounds" />
          </mxGeometry>
        </mxCell>
        <mxCell id="Fh2huoGaFI3x0_w4W2nC-24" value="" style="shape=partialRectangle;collapsible=0;dropTarget=0;pointerEvents=0;fillColor=none;points=[[0,0.5],[1,0.5]];portConstraint=eastwest;top=0;left=0;right=0;bottom=1;" parent="Fh2huoGaFI3x0_w4W2nC-23" vertex="1">
          <mxGeometry y="30" width="250" height="30" as="geometry" />
        </mxCell>
        <mxCell id="Fh2huoGaFI3x0_w4W2nC-25" value="PK" style="shape=partialRectangle;overflow=hidden;connectable=0;fillColor=none;top=0;left=0;bottom=0;right=0;fontStyle=1;" parent="Fh2huoGaFI3x0_w4W2nC-24" vertex="1">
          <mxGeometry width="30" height="30" as="geometry">
            <mxRectangle width="30" height="30" as="alternateBounds" />
          </mxGeometry>
        </mxCell>
        <mxCell id="Fh2huoGaFI3x0_w4W2nC-26" value="order_id int NOT NULL " style="shape=partialRectangle;overflow=hidden;connectable=0;fillColor=none;top=0;left=0;bottom=0;right=0;align=left;spacingLeft=6;fontStyle=5;" parent="Fh2huoGaFI3x0_w4W2nC-24" vertex="1">
          <mxGeometry x="30" width="220" height="30" as="geometry">
            <mxRectangle width="220" height="30" as="alternateBounds" />
          </mxGeometry>
        </mxCell>
        <mxCell id="Fh2huoGaFI3x0_w4W2nC-27" value="" style="shape=partialRectangle;collapsible=0;dropTarget=0;pointerEvents=0;fillColor=none;points=[[0,0.5],[1,0.5]];portConstraint=eastwest;top=0;left=0;right=0;bottom=0;" parent="Fh2huoGaFI3x0_w4W2nC-23" vertex="1">
          <mxGeometry y="60" width="250" height="30" as="geometry" />
        </mxCell>
        <mxCell id="Fh2huoGaFI3x0_w4W2nC-28" value="FK1" style="shape=partialRectangle;overflow=hidden;connectable=0;fillColor=none;top=0;left=0;bottom=0;right=0;" parent="Fh2huoGaFI3x0_w4W2nC-27" vertex="1">
          <mxGeometry width="30" height="30" as="geometry">
            <mxRectangle width="30" height="30" as="alternateBounds" />
          </mxGeometry>
        </mxCell>
        <mxCell id="Fh2huoGaFI3x0_w4W2nC-29" value="customer_id int NOT NULL" style="shape=partialRectangle;overflow=hidden;connectable=0;fillColor=none;top=0;left=0;bottom=0;right=0;align=left;spacingLeft=6;" parent="Fh2huoGaFI3x0_w4W2nC-27" vertex="1">
          <mxGeometry x="30" width="220" height="30" as="geometry">
            <mxRectangle width="220" height="30" as="alternateBounds" />
          </mxGeometry>
        </mxCell>
        <mxCell id="Fh2huoGaFI3x0_w4W2nC-30" value="" style="shape=partialRectangle;collapsible=0;dropTarget=0;pointerEvents=0;fillColor=none;points=[[0,0.5],[1,0.5]];portConstraint=eastwest;top=0;left=0;right=0;bottom=0;" parent="Fh2huoGaFI3x0_w4W2nC-23" vertex="1">
          <mxGeometry y="90" width="250" height="30" as="geometry" />
        </mxCell>
        <mxCell id="Fh2huoGaFI3x0_w4W2nC-31" value="" style="shape=partialRectangle;overflow=hidden;connectable=0;fillColor=none;top=0;left=0;bottom=0;right=0;" parent="Fh2huoGaFI3x0_w4W2nC-30" vertex="1">
          <mxGeometry width="30" height="30" as="geometry">
            <mxRectangle width="30" height="30" as="alternateBounds" />
          </mxGeometry>
        </mxCell>
        <mxCell id="Fh2huoGaFI3x0_w4W2nC-32" value="order_date date NOT NULL" style="shape=partialRectangle;overflow=hidden;connectable=0;fillColor=none;top=0;left=0;bottom=0;right=0;align=left;spacingLeft=6;" parent="Fh2huoGaFI3x0_w4W2nC-30" vertex="1">
          <mxGeometry x="30" width="220" height="30" as="geometry">
            <mxRectangle width="220" height="30" as="alternateBounds" />
          </mxGeometry>
        </mxCell>
        <mxCell id="Fh2huoGaFI3x0_w4W2nC-38" style="edgeStyle=orthogonalEdgeStyle;rounded=0;orthogonalLoop=1;jettySize=auto;html=1;entryX=1.013;entryY=0.358;entryDx=0;entryDy=0;entryPerimeter=0;fillColor=#6a00ff;strokeColor=#3700CC;" parent="1" target="Fh2huoGaFI3x0_w4W2nC-23" edge="1">
          <mxGeometry relative="1" as="geometry">
            <mxPoint x="425.02127659574467" y="554.0212765957447" as="sourcePoint" />
          </mxGeometry>
        </mxCell>
        <mxCell id="Fh2huoGaFI3x0_w4W2nC-34" value="" style="rhombus;whiteSpace=wrap;html=1;fillColor=#6a00ff;fontColor=#ffffff;strokeColor=#3700CC;" parent="1" vertex="1">
          <mxGeometry x="425.02" y="534" width="40" height="40" as="geometry" />
        </mxCell>
        <mxCell id="Fh2huoGaFI3x0_w4W2nC-37" value="&lt;font style=&quot;font-size: 8px;&quot;&gt;(1:1)&lt;/font&gt;" style="text;html=1;strokeColor=none;fillColor=none;align=center;verticalAlign=middle;whiteSpace=wrap;rounded=0;" parent="1" vertex="1">
          <mxGeometry x="726" y="405" width="40" height="20" as="geometry" />
        </mxCell>
        <mxCell id="Fh2huoGaFI3x0_w4W2nC-41" value="&lt;font style=&quot;font-size: 8px;&quot;&gt;(1:1)&lt;/font&gt;" style="text;html=1;strokeColor=none;fillColor=none;align=center;verticalAlign=middle;whiteSpace=wrap;rounded=0;" parent="1" vertex="1">
          <mxGeometry x="384" y="541" width="40" height="20" as="geometry" />
        </mxCell>
        <mxCell id="Fh2huoGaFI3x0_w4W2nC-48" style="edgeStyle=orthogonalEdgeStyle;rounded=0;orthogonalLoop=1;jettySize=auto;html=1;entryX=0.5;entryY=1;entryDx=0;entryDy=0;fillColor=#fa6800;strokeColor=#C73500;" parent="1" source="Fh2huoGaFI3x0_w4W2nC-42" target="C-vyLk0tnHw3VtMMgP7b-2" edge="1">
          <mxGeometry relative="1" as="geometry" />
        </mxCell>
        <mxCell id="Fh2huoGaFI3x0_w4W2nC-50" style="edgeStyle=orthogonalEdgeStyle;rounded=0;orthogonalLoop=1;jettySize=auto;html=1;entryX=0.5;entryY=0;entryDx=0;entryDy=0;fillColor=#fa6800;strokeColor=#C73500;exitX=0.5;exitY=1;exitDx=0;exitDy=0;" parent="1" source="Fh2huoGaFI3x0_w4W2nC-42" target="Fh2huoGaFI3x0_w4W2nC-23" edge="1">
          <mxGeometry relative="1" as="geometry">
            <mxPoint x="325" y="510" as="sourcePoint" />
          </mxGeometry>
        </mxCell>
        <mxCell id="Fh2huoGaFI3x0_w4W2nC-42" value="" style="rhombus;whiteSpace=wrap;html=1;fillColor=#fa6800;fontColor=#000000;strokeColor=#C73500;" parent="1" vertex="1">
          <mxGeometry x="305" y="465" width="40" height="40" as="geometry" />
        </mxCell>
        <mxCell id="Meix0L9kaGej4XstKNyx-172" value="&lt;font style=&quot;font-size: 8px;&quot;&gt;(1:3)&lt;/font&gt;" style="text;html=1;strokeColor=none;fillColor=none;align=center;verticalAlign=middle;whiteSpace=wrap;rounded=0;" parent="1" vertex="1">
          <mxGeometry x="305" y="445" width="40" height="20" as="geometry" />
        </mxCell>
        <mxCell id="Fh2huoGaFI3x0_w4W2nC-51" value="&lt;font style=&quot;font-size: 8px;&quot;&gt;(1:1)&lt;/font&gt;" style="text;html=1;strokeColor=none;fillColor=none;align=center;verticalAlign=middle;whiteSpace=wrap;rounded=0;" parent="1" vertex="1">
          <mxGeometry x="305" y="505" width="40" height="20" as="geometry" />
        </mxCell>
        <mxCell id="Fh2huoGaFI3x0_w4W2nC-53" value="Esami" style="shape=table;startSize=30;container=1;collapsible=1;childLayout=tableLayout;fixedRows=1;rowLines=0;fontStyle=1;align=center;resizeLast=1;fillColor=#6a00ff;fontColor=#ffffff;strokeColor=#3700CC;" parent="1" vertex="1" collapsed="1">
          <mxGeometry x="660" y="290" width="108" height="30" as="geometry">
            <mxRectangle x="480" y="310" width="250" height="130" as="alternateBounds" />
          </mxGeometry>
        </mxCell>
        <mxCell id="Fh2huoGaFI3x0_w4W2nC-54" value="" style="shape=partialRectangle;collapsible=0;dropTarget=0;pointerEvents=0;fillColor=none;points=[[0,0.5],[1,0.5]];portConstraint=eastwest;top=0;left=0;right=0;bottom=1;" parent="Fh2huoGaFI3x0_w4W2nC-53" vertex="1">
          <mxGeometry y="30" width="250" height="30" as="geometry" />
        </mxCell>
        <mxCell id="Fh2huoGaFI3x0_w4W2nC-55" value="PK" style="shape=partialRectangle;overflow=hidden;connectable=0;fillColor=none;top=0;left=0;bottom=0;right=0;fontStyle=1;" parent="Fh2huoGaFI3x0_w4W2nC-54" vertex="1">
          <mxGeometry width="30" height="30" as="geometry">
            <mxRectangle width="30" height="30" as="alternateBounds" />
          </mxGeometry>
        </mxCell>
        <mxCell id="Fh2huoGaFI3x0_w4W2nC-56" value="shipment_id int NOT NULL " style="shape=partialRectangle;overflow=hidden;connectable=0;fillColor=none;top=0;left=0;bottom=0;right=0;align=left;spacingLeft=6;fontStyle=5;" parent="Fh2huoGaFI3x0_w4W2nC-54" vertex="1">
          <mxGeometry x="30" width="220" height="30" as="geometry">
            <mxRectangle width="220" height="30" as="alternateBounds" />
          </mxGeometry>
        </mxCell>
        <mxCell id="Fh2huoGaFI3x0_w4W2nC-57" value="" style="shape=partialRectangle;collapsible=0;dropTarget=0;pointerEvents=0;fillColor=none;points=[[0,0.5],[1,0.5]];portConstraint=eastwest;top=0;left=0;right=0;bottom=0;" parent="Fh2huoGaFI3x0_w4W2nC-53" vertex="1">
          <mxGeometry y="60" width="250" height="30" as="geometry" />
        </mxCell>
        <mxCell id="Fh2huoGaFI3x0_w4W2nC-58" value="FK1" style="shape=partialRectangle;overflow=hidden;connectable=0;fillColor=none;top=0;left=0;bottom=0;right=0;" parent="Fh2huoGaFI3x0_w4W2nC-57" vertex="1">
          <mxGeometry width="30" height="30" as="geometry">
            <mxRectangle width="30" height="30" as="alternateBounds" />
          </mxGeometry>
        </mxCell>
        <mxCell id="Fh2huoGaFI3x0_w4W2nC-59" value="order_id int NOT NULL" style="shape=partialRectangle;overflow=hidden;connectable=0;fillColor=none;top=0;left=0;bottom=0;right=0;align=left;spacingLeft=6;" parent="Fh2huoGaFI3x0_w4W2nC-57" vertex="1">
          <mxGeometry x="30" width="220" height="30" as="geometry">
            <mxRectangle width="220" height="30" as="alternateBounds" />
          </mxGeometry>
        </mxCell>
        <mxCell id="Fh2huoGaFI3x0_w4W2nC-60" value="" style="shape=partialRectangle;collapsible=0;dropTarget=0;pointerEvents=0;fillColor=none;points=[[0,0.5],[1,0.5]];portConstraint=eastwest;top=0;left=0;right=0;bottom=0;" parent="Fh2huoGaFI3x0_w4W2nC-53" vertex="1">
          <mxGeometry y="90" width="250" height="30" as="geometry" />
        </mxCell>
        <mxCell id="Fh2huoGaFI3x0_w4W2nC-61" value="" style="shape=partialRectangle;overflow=hidden;connectable=0;fillColor=none;top=0;left=0;bottom=0;right=0;" parent="Fh2huoGaFI3x0_w4W2nC-60" vertex="1">
          <mxGeometry width="30" height="30" as="geometry">
            <mxRectangle width="30" height="30" as="alternateBounds" />
          </mxGeometry>
        </mxCell>
        <mxCell id="Fh2huoGaFI3x0_w4W2nC-62" value="shipment_date date NOT NULL" style="shape=partialRectangle;overflow=hidden;connectable=0;fillColor=none;top=0;left=0;bottom=0;right=0;align=left;spacingLeft=6;" parent="Fh2huoGaFI3x0_w4W2nC-60" vertex="1">
          <mxGeometry x="30" width="220" height="30" as="geometry">
            <mxRectangle width="220" height="30" as="alternateBounds" />
          </mxGeometry>
        </mxCell>
        <mxCell id="Fh2huoGaFI3x0_w4W2nC-65" style="edgeStyle=orthogonalEdgeStyle;rounded=0;orthogonalLoop=1;jettySize=auto;html=1;exitX=1;exitY=0.5;exitDx=0;exitDy=0;entryX=0.005;entryY=0.328;entryDx=0;entryDy=0;entryPerimeter=0;fillColor=#6a00ff;strokeColor=#3700CC;" parent="1" source="Fh2huoGaFI3x0_w4W2nC-63" target="Fh2huoGaFI3x0_w4W2nC-53" edge="1">
          <mxGeometry relative="1" as="geometry">
            <mxPoint x="656" y="299.91666666666674" as="targetPoint" />
          </mxGeometry>
        </mxCell>
        <mxCell id="Fh2huoGaFI3x0_w4W2nC-63" value="" style="rhombus;whiteSpace=wrap;html=1;fillColor=#6a00ff;fontColor=#ffffff;strokeColor=#3700CC;" parent="1" vertex="1">
          <mxGeometry x="586" y="280" width="40" height="40" as="geometry" />
        </mxCell>
        <mxCell id="Fh2huoGaFI3x0_w4W2nC-66" value="&lt;font style=&quot;font-size: 8px;&quot;&gt;(1:1)&lt;/font&gt;" style="text;html=1;strokeColor=none;fillColor=none;align=center;verticalAlign=middle;whiteSpace=wrap;rounded=0;" parent="1" vertex="1">
          <mxGeometry x="620" y="283" width="40" height="20" as="geometry" />
        </mxCell>
        <mxCell id="Fh2huoGaFI3x0_w4W2nC-68" style="edgeStyle=orthogonalEdgeStyle;rounded=0;orthogonalLoop=1;jettySize=auto;html=1;exitX=0;exitY=0.5;exitDx=0;exitDy=0;entryX=0.048;entryY=0.746;entryDx=0;entryDy=0;entryPerimeter=0;fillColor=#6a00ff;strokeColor=#3700CC;" parent="1" source="Fh2huoGaFI3x0_w4W2nC-67" target="Fh2huoGaFI3x0_w4W2nC-70" edge="1">
          <mxGeometry relative="1" as="geometry">
            <mxPoint x="776" y="303" as="targetPoint" />
          </mxGeometry>
        </mxCell>
        <mxCell id="Fh2huoGaFI3x0_w4W2nC-67" value="" style="rhombus;whiteSpace=wrap;html=1;fillColor=#6a00ff;fontColor=#ffffff;strokeColor=#3700CC;" parent="1" vertex="1">
          <mxGeometry x="796" y="280" width="40" height="40" as="geometry" />
        </mxCell>
        <mxCell id="Fh2huoGaFI3x0_w4W2nC-70" value="&lt;font style=&quot;font-size: 8px;&quot;&gt;(1:1)&lt;/font&gt;" style="text;html=1;strokeColor=none;fillColor=none;align=center;verticalAlign=middle;whiteSpace=wrap;rounded=0;" parent="1" vertex="1">
          <mxGeometry x="766" y="285" width="40" height="20" as="geometry" />
        </mxCell>
        <mxCell id="EXZsCFKsQrVLNztmcSOO-8" value="&lt;font style=&quot;font-size: 11px;&quot;&gt;(P,S)&lt;/font&gt;" style="text;html=1;strokeColor=none;fillColor=none;align=center;verticalAlign=middle;whiteSpace=wrap;rounded=0;" parent="1" vertex="1">
          <mxGeometry x="150" y="270" width="50" height="27.5" as="geometry" />
        </mxCell>
        <mxCell id="EXZsCFKsQrVLNztmcSOO-9" value="" style="endArrow=classic;html=1;rounded=0;exitX=0;exitY=0.5;exitDx=0;exitDy=0;entryX=1;entryY=0.5;entryDx=0;entryDy=0;fillColor=#1ba1e2;strokeColor=#006EAF;strokeWidth=4;" parent="1" source="C-vyLk0tnHw3VtMMgP7b-13" target="C-vyLk0tnHw3VtMMgP7b-23" edge="1">
          <mxGeometry width="50" height="50" relative="1" as="geometry">
            <mxPoint x="210" y="330" as="sourcePoint" />
            <mxPoint x="260" y="280" as="targetPoint" />
          </mxGeometry>
        </mxCell>
        <mxCell id="EXZsCFKsQrVLNztmcSOO-10" value="" style="endArrow=none;html=1;rounded=0;fillColor=#1ba1e2;strokeColor=#006EAF;strokeWidth=5;" parent="1" edge="1">
          <mxGeometry width="50" height="50" relative="1" as="geometry">
            <mxPoint x="210" y="380" as="sourcePoint" />
            <mxPoint x="210" y="170" as="targetPoint" />
          </mxGeometry>
        </mxCell>
        <mxCell id="EXZsCFKsQrVLNztmcSOO-11" value="" style="endArrow=none;html=1;rounded=0;entryX=0;entryY=0.5;entryDx=0;entryDy=0;fillColor=#1ba1e2;strokeColor=#006EAF;strokeWidth=5;" parent="1" target="C-vyLk0tnHw3VtMMgP7b-2" edge="1">
          <mxGeometry width="50" height="50" relative="1" as="geometry">
            <mxPoint x="210" y="380" as="sourcePoint" />
            <mxPoint x="260" y="360" as="targetPoint" />
          </mxGeometry>
        </mxCell>
        <mxCell id="EXZsCFKsQrVLNztmcSOO-12" value="" style="endArrow=none;html=1;rounded=0;fillColor=#1ba1e2;strokeColor=#006EAF;strokeWidth=5;" parent="1" edge="1">
          <mxGeometry width="50" height="50" relative="1" as="geometry">
            <mxPoint x="210" y="220" as="sourcePoint" />
            <mxPoint x="280" y="220" as="targetPoint" />
          </mxGeometry>
        </mxCell>
        <mxCell id="EXZsCFKsQrVLNztmcSOO-13" value="" style="endArrow=none;html=1;rounded=0;entryX=0;entryY=0.5;entryDx=0;entryDy=0;fillColor=#1ba1e2;strokeColor=#006EAF;strokeWidth=5;" parent="1" target="Meix0L9kaGej4XstKNyx-124" edge="1">
          <mxGeometry width="50" height="50" relative="1" as="geometry">
            <mxPoint x="210" y="170" as="sourcePoint" />
            <mxPoint x="270" y="160" as="targetPoint" />
          </mxGeometry>
        </mxCell>
        <mxCell id="Meix0L9kaGej4XstKNyx-107" value="ME" style="shape=umlActor;verticalLabelPosition=bottom;verticalAlign=top;html=1;outlineConnect=0;fillColor=#d80073;fontColor=#ffffff;strokeColor=#A50040;" parent="1" vertex="1">
          <mxGeometry x="260" y="745" width="30" height="60" as="geometry" />
        </mxCell>
        <mxCell id="6cu0RhENIHBB-aG1-yi0-1" value="&lt;ul&gt;&lt;li align=&quot;left&quot; style=&quot;font-size: 11px;&quot;&gt;&lt;i&gt;&lt;font style=&quot;font-size: 11px;&quot;&gt;&lt;b&gt;CodiceFiscale&lt;/b&gt;&lt;/font&gt;&lt;/i&gt;&lt;/li&gt;&lt;li align=&quot;left&quot; style=&quot;font-size: 11px;&quot;&gt;&lt;font style=&quot;font-size: 11px;&quot;&gt;DataNascita&lt;/font&gt;&lt;/li&gt;&lt;li align=&quot;left&quot; style=&quot;font-size: 11px;&quot;&gt;&lt;font style=&quot;font-size: 11px;&quot;&gt;Nome&lt;/font&gt;&lt;/li&gt;&lt;li align=&quot;left&quot; style=&quot;font-size: 11px;&quot;&gt;&lt;font style=&quot;font-size: 11px;&quot;&gt;Cognome&lt;/font&gt;&lt;/li&gt;&lt;li align=&quot;left&quot; style=&quot;font-size: 11px;&quot;&gt;&lt;font style=&quot;font-size: 11px;&quot;&gt;Luogo_Nascita&lt;/font&gt;&lt;/li&gt;&lt;li align=&quot;left&quot; style=&quot;font-size: 11px;&quot;&gt;&lt;font style=&quot;font-size: 11px;&quot;&gt;Sesso&lt;/font&gt;&lt;/li&gt;&lt;/ul&gt;" style="text;html=1;strokeColor=none;fillColor=none;align=left;verticalAlign=middle;whiteSpace=wrap;rounded=0;" parent="1" vertex="1">
          <mxGeometry x="10" y="310" width="120" height="110" as="geometry" />
        </mxCell>
        <mxCell id="7NxkdCGCCHtkmiXkoG6E-1" value="&lt;ul&gt;&lt;li align=&quot;left&quot; style=&quot;font-size: 11px;&quot;&gt;&lt;b&gt;&lt;i&gt;IdUtente&lt;/i&gt;&lt;/b&gt;&lt;/li&gt;&lt;li align=&quot;left&quot; style=&quot;font-size: 11px;&quot;&gt;CodiceFiscale REF Anagrafica&lt;br&gt;&lt;/li&gt;&lt;/ul&gt;" style="text;html=1;strokeColor=none;fillColor=none;align=left;verticalAlign=middle;whiteSpace=wrap;rounded=0;" vertex="1" parent="1">
          <mxGeometry x="361" y="245" width="239" height="110" as="geometry" />
        </mxCell>
        <mxCell id="7NxkdCGCCHtkmiXkoG6E-2" value="&lt;ul&gt;&lt;li align=&quot;left&quot; style=&quot;font-size: 11px;&quot;&gt;&lt;b&gt;&lt;i&gt;Matricola&lt;/i&gt;&lt;/b&gt;&lt;/li&gt;&lt;li align=&quot;left&quot; style=&quot;font-size: 11px;&quot;&gt;CodiceFiscale REF Anagrafica &lt;br&gt;&lt;/li&gt;&lt;li align=&quot;left&quot; style=&quot;font-size: 11px;&quot;&gt;AnnoIscrizione&lt;/li&gt;&lt;li align=&quot;left&quot; style=&quot;font-size: 11px;&quot;&gt;Corso REF Corso&lt;br&gt;&lt;/li&gt;&lt;/ul&gt;" style="text;html=1;strokeColor=none;fillColor=none;align=left;verticalAlign=middle;whiteSpace=wrap;rounded=0;" vertex="1" parent="1">
          <mxGeometry x="361" y="193" width="189" height="110" as="geometry" />
        </mxCell>
        <mxCell id="7NxkdCGCCHtkmiXkoG6E-5" value="&lt;ul&gt;&lt;li align=&quot;left&quot; style=&quot;font-size: 11px;&quot;&gt;&lt;b&gt;&lt;i&gt;IdInsegnamento&lt;/i&gt;&lt;/b&gt;&lt;/li&gt;&lt;li align=&quot;left&quot; style=&quot;font-size: 11px;&quot;&gt;Durata&lt;/li&gt;&lt;li align=&quot;left&quot; style=&quot;font-size: 11px;&quot;&gt;Descrizione&lt;/li&gt;&lt;li align=&quot;left&quot; style=&quot;font-size: 11px;&quot;&gt;SitoWeb&lt;br&gt;&lt;/li&gt;&lt;/ul&gt;" style="text;html=1;strokeColor=none;fillColor=none;align=left;verticalAlign=middle;whiteSpace=wrap;rounded=0;" vertex="1" parent="1">
          <mxGeometry x="499" y="395" width="239" height="110" as="geometry" />
        </mxCell>
        <mxCell id="7NxkdCGCCHtkmiXkoG6E-6" value="" style="edgeStyle=orthogonalEdgeStyle;rounded=0;orthogonalLoop=1;jettySize=auto;html=1;fillColor=#6a00ff;strokeColor=#3700CC;exitX=1;exitY=0.5;exitDx=0;exitDy=0;entryX=0;entryY=0.25;entryDx=0;entryDy=0;" edge="1" parent="1" source="Fh2huoGaFI3x0_w4W2nC-34" target="Meix0L9kaGej4XstKNyx-24">
          <mxGeometry relative="1" as="geometry">
            <Array as="points">
              <mxPoint x="470" y="554" />
              <mxPoint x="470" y="397" />
            </Array>
            <mxPoint x="465" y="554" as="sourcePoint" />
            <mxPoint x="548" y="401" as="targetPoint" />
          </mxGeometry>
        </mxCell>
        <mxCell id="Meix0L9kaGej4XstKNyx-171" value="&lt;font style=&quot;font-size: 8px;&quot;&gt;(0:n)&lt;/font&gt;" style="text;html=1;strokeColor=none;fillColor=none;align=center;verticalAlign=middle;whiteSpace=wrap;rounded=0;" parent="1" vertex="1">
          <mxGeometry x="450.5" y="441" width="40" height="20" as="geometry" />
        </mxCell>
        <mxCell id="7NxkdCGCCHtkmiXkoG6E-8" value="&lt;ul&gt;&lt;li align=&quot;left&quot; style=&quot;font-size: 11px;&quot;&gt;&lt;b&gt;&lt;i&gt;Insegnamento Ref Insegnamenti&lt;br&gt;&lt;/i&gt;&lt;/b&gt;&lt;/li&gt;&lt;li align=&quot;left&quot; style=&quot;font-size: 11px;&quot;&gt;&lt;b&gt;&lt;i&gt;Docente Ref Docenti&lt;/i&gt;&lt;/b&gt;&lt;br&gt;&lt;/li&gt;&lt;/ul&gt;" style="text;html=1;strokeColor=none;fillColor=none;align=left;verticalAlign=middle;whiteSpace=wrap;rounded=0;" vertex="1" parent="1">
          <mxGeometry x="226.02" y="550" width="239" height="91" as="geometry" />
        </mxCell>
        <mxCell id="7NxkdCGCCHtkmiXkoG6E-10" value="&lt;ul&gt;&lt;li align=&quot;left&quot; style=&quot;font-size: 11px;&quot;&gt;&lt;b&gt;&lt;i&gt;Insegnamento Ref Insegnamenti&lt;br&gt;&lt;/i&gt;&lt;/b&gt;&lt;/li&gt;&lt;li align=&quot;left&quot; style=&quot;font-size: 11px;&quot;&gt;&lt;b&gt;&lt;i&gt;Corso Ref Corsi&lt;/i&gt;&lt;/b&gt;&lt;/li&gt;&lt;li align=&quot;left&quot; style=&quot;font-size: 11px;&quot;&gt;Anno&lt;br&gt;&lt;/li&gt;&lt;/ul&gt;" style="text;html=1;strokeColor=none;fillColor=none;align=left;verticalAlign=middle;whiteSpace=wrap;rounded=0;" vertex="1" parent="1">
          <mxGeometry x="594.5" y="212" width="239" height="91" as="geometry" />
        </mxCell>
        <mxCell id="7NxkdCGCCHtkmiXkoG6E-11" value="&lt;ul&gt;&lt;li align=&quot;left&quot; style=&quot;font-size: 11px;&quot;&gt;&lt;b&gt;&lt;i&gt;Esame Ref Esame&lt;br&gt;&lt;/i&gt;&lt;/b&gt;&lt;/li&gt;&lt;li align=&quot;left&quot; style=&quot;font-size: 11px;&quot;&gt;&lt;b&gt;&lt;i&gt;Richiesto Ref Esame&lt;/i&gt;&lt;/b&gt;&lt;br&gt;&lt;/li&gt;&lt;/ul&gt;" style="text;html=1;strokeColor=none;fillColor=none;align=left;verticalAlign=middle;whiteSpace=wrap;rounded=0;" vertex="1" parent="1">
          <mxGeometry x="609.5" y="470" width="239" height="91" as="geometry" />
        </mxCell>
        <mxCell id="7NxkdCGCCHtkmiXkoG6E-12" value="&lt;ul&gt;&lt;li align=&quot;left&quot; style=&quot;font-size: 11px;&quot;&gt;&lt;b&gt;&lt;i&gt;IdCorso&lt;/i&gt;&lt;/b&gt;&lt;/li&gt;&lt;li align=&quot;left&quot; style=&quot;font-size: 11px;&quot;&gt;nome&lt;b&gt;&lt;br&gt;&lt;/b&gt;&lt;/li&gt;&lt;li align=&quot;left&quot; style=&quot;font-size: 11px;&quot;&gt;Descrizione&lt;br&gt;&lt;/li&gt;&lt;li align=&quot;left&quot; style=&quot;font-size: 11px;&quot;&gt;TipoCorso&lt;/li&gt;&lt;li align=&quot;left&quot; style=&quot;font-size: 11px;&quot;&gt;Edizione&lt;br&gt;&lt;/li&gt;&lt;/ul&gt;" style="text;html=1;strokeColor=none;fillColor=none;align=left;verticalAlign=middle;whiteSpace=wrap;rounded=0;" vertex="1" parent="1">
          <mxGeometry x="806" y="375" width="239" height="110" as="geometry" />
        </mxCell>
        <mxCell id="7NxkdCGCCHtkmiXkoG6E-13" value="&lt;ul&gt;&lt;li align=&quot;left&quot; style=&quot;font-size: 11px;&quot;&gt;&lt;b&gt;&lt;i&gt;Id&lt;/i&gt;&lt;/b&gt;&lt;br&gt;&lt;/li&gt;&lt;li align=&quot;left&quot; style=&quot;font-size: 11px;&quot;&gt;Insegnamento Ref Insegnamenti&lt;/li&gt;&lt;li align=&quot;left&quot; style=&quot;font-size: 11px;&quot;&gt;AperturaIscrizioni&lt;/li&gt;&lt;li align=&quot;left&quot; style=&quot;font-size: 11px;&quot;&gt;ChiusuraIscrizioni&lt;/li&gt;&lt;li align=&quot;left&quot; style=&quot;font-size: 11px;&quot;&gt;DataEsame&lt;br&gt;&lt;/li&gt;&lt;/ul&gt;" style="text;html=1;strokeColor=none;fillColor=none;align=left;verticalAlign=middle;whiteSpace=wrap;rounded=0;" vertex="1" parent="1">
          <mxGeometry x="473" y="614" width="239" height="91" as="geometry" />
        </mxCell>
        <mxCell id="7NxkdCGCCHtkmiXkoG6E-14" value="&lt;ul&gt;&lt;li align=&quot;left&quot; style=&quot;font-size: 11px;&quot;&gt;&lt;b&gt;&lt;i&gt;Appello Ref Calendario&lt;br&gt;&lt;/i&gt;&lt;/b&gt;&lt;/li&gt;&lt;li align=&quot;left&quot; style=&quot;font-size: 11px;&quot;&gt;&lt;b&gt;&lt;i&gt;Studente Ref Studente&lt;/i&gt;&lt;/b&gt;&lt;/li&gt;&lt;li align=&quot;left&quot; style=&quot;font-size: 11px;&quot;&gt;Voto&lt;/li&gt;&lt;li align=&quot;left&quot; style=&quot;font-size: 11px;&quot;&gt;DataVerbalizazione&lt;b&gt;&lt;i&gt;&lt;br&gt;&lt;/i&gt;&lt;/b&gt;&lt;/li&gt;&lt;/ul&gt;" style="text;html=1;strokeColor=none;fillColor=none;align=left;verticalAlign=middle;whiteSpace=wrap;rounded=0;" vertex="1" parent="1">
          <mxGeometry x="486.5" y="745" width="239" height="91" as="geometry" />
        </mxCell>
        <mxCell id="7NxkdCGCCHtkmiXkoG6E-17" value="&lt;ul&gt;&lt;li align=&quot;left&quot; style=&quot;font-size: 11px;&quot;&gt;&lt;b&gt;&lt;i&gt;Appello Ref Calendario&lt;br&gt;&lt;/i&gt;&lt;/b&gt;&lt;/li&gt;&lt;li align=&quot;left&quot; style=&quot;font-size: 11px;&quot;&gt;&lt;b&gt;&lt;i&gt;Studente Ref Studenti_in&lt;/i&gt;&lt;/b&gt;&lt;/li&gt;&lt;li align=&quot;left&quot; style=&quot;font-size: 11px;&quot;&gt;Voto&lt;/li&gt;&lt;li align=&quot;left&quot; style=&quot;font-size: 11px;&quot;&gt;DataVerbalizazione&lt;b&gt;&lt;i&gt;&lt;br&gt;&lt;/i&gt;&lt;/b&gt;&lt;/li&gt;&lt;/ul&gt;" style="text;html=1;strokeColor=none;fillColor=none;align=left;verticalAlign=middle;whiteSpace=wrap;rounded=0;" vertex="1" parent="1">
          <mxGeometry x="913" y="745" width="180" height="91" as="geometry" />
        </mxCell>
      </root>
    </mxGraphModel>
  </diagram>
</mxfile>
